<?xml version="1.0" encoding="UTF-8" standalone="no"?>
<!DOCTYPE svg PUBLIC "-//W3C//DTD SVG 1.1//EN"
 "http://www.w3.org/Graphics/SVG/1.1/DTD/svg11.dtd">
<!-- Generated by graphviz version 2.43.0 (0)
 -->
<!-- Title: G Pages: 1 -->
<svg width="2291pt" height="1542pt"
 viewBox="0.00 0.00 2291.20 1541.69" xmlns="http://www.w3.org/2000/svg" xmlns:xlink="http://www.w3.org/1999/xlink">
<g id="graph0" class="graph" transform="scale(1 1) rotate(0) translate(21.6 1520.09)">
<title>G</title>
<polygon fill="#111111" stroke="transparent" points="-21.6,21.6 -21.6,-1520.09 2269.6,-1520.09 2269.6,21.6 -21.6,21.6"/>
<!-- ../../config/enviroment_config.js -->
<g id="node1" class="node">
<title>../../config/enviroment_config.js</title>
<path fill="none" stroke="#cfffac" d="M2240.33,-356.49C2240.33,-356.49 2052.67,-356.49 2052.67,-356.49 2048.83,-356.49 2045,-352.66 2045,-348.82 2045,-348.82 2045,-341.16 2045,-341.16 2045,-337.32 2048.83,-333.49 2052.67,-333.49 2052.67,-333.49 2240.33,-333.49 2240.33,-333.49 2244.17,-333.49 2248,-337.32 2248,-341.16 2248,-341.16 2248,-348.82 2248,-348.82 2248,-352.66 2244.17,-356.49 2240.33,-356.49"/>
<text text-anchor="middle" x="2146.5" y="-341.29" font-family="Arial" font-size="14.00" fill="#cfffac">../../config/enviroment_config.js</text>
</g>
<!-- ../../config/kafka.js -->
<g id="node2" class="node">
<title>../../config/kafka.js</title>
<path fill="none" stroke="#c6c5fe" d="M598.33,-241.49C598.33,-241.49 488.67,-241.49 488.67,-241.49 484.83,-241.49 481,-237.66 481,-233.82 481,-233.82 481,-226.16 481,-226.16 481,-222.32 484.83,-218.49 488.67,-218.49 488.67,-218.49 598.33,-218.49 598.33,-218.49 602.17,-218.49 606,-222.32 606,-226.16 606,-226.16 606,-233.82 606,-233.82 606,-237.66 602.17,-241.49 598.33,-241.49"/>
<text text-anchor="middle" x="543.5" y="-226.29" font-family="Arial" font-size="14.00" fill="#c6c5fe">../../config/kafka.js</text>
</g>
<!-- ../../config/kafka.js&#45;&gt;../../config/enviroment_config.js -->
<g id="edge1" class="edge">
<title>../../config/kafka.js&#45;&gt;../../config/enviroment_config.js</title>
<path fill="none" stroke="#757575" d="M606.07,-221.59C691.58,-210.68 851.24,-192.99 988,-192.99 988,-192.99 988,-192.99 1668,-192.99 1844.93,-192.99 2042.09,-288.91 2115.69,-328.36"/>
<polygon fill="#757575" stroke="#757575" points="2114.38,-331.63 2124.84,-333.31 2117.71,-325.47 2114.38,-331.63"/>
</g>
<!-- ../../config/logger.js -->
<g id="node3" class="node">
<title>../../config/logger.js</title>
<path fill="none" stroke="#c6c5fe" d="M2001.33,-356.49C2001.33,-356.49 1887.67,-356.49 1887.67,-356.49 1883.83,-356.49 1880,-352.66 1880,-348.82 1880,-348.82 1880,-341.16 1880,-341.16 1880,-337.32 1883.83,-333.49 1887.67,-333.49 1887.67,-333.49 2001.33,-333.49 2001.33,-333.49 2005.17,-333.49 2009,-337.32 2009,-341.16 2009,-341.16 2009,-348.82 2009,-348.82 2009,-352.66 2005.17,-356.49 2001.33,-356.49"/>
<text text-anchor="middle" x="1944.5" y="-341.29" font-family="Arial" font-size="14.00" fill="#c6c5fe">../../config/logger.js</text>
</g>
<!-- ../../config/kafka.js&#45;&gt;../../config/logger.js -->
<g id="edge2" class="edge">
<title>../../config/kafka.js&#45;&gt;../../config/logger.js</title>
<path fill="none" stroke="#757575" d="M606.05,-238.84C691.55,-250.34 851.19,-268.99 988,-268.99 988,-268.99 988,-268.99 1299,-268.99 1541.46,-268.99 1609.87,-230 1844,-292.99 1870.97,-300.24 1898.93,-315.67 1918.31,-327.85"/>
<polygon fill="#757575" stroke="#757575" points="1916.54,-330.87 1926.84,-333.34 1920.33,-324.98 1916.54,-330.87"/>
</g>
<!-- ../../config/metric.js -->
<g id="node4" class="node">
<title>../../config/metric.js</title>
<path fill="none" stroke="#cfffac" d="M803.83,-86.49C803.83,-86.49 689.17,-86.49 689.17,-86.49 685.33,-86.49 681.5,-82.66 681.5,-78.82 681.5,-78.82 681.5,-71.16 681.5,-71.16 681.5,-67.32 685.33,-63.49 689.17,-63.49 689.17,-63.49 803.83,-63.49 803.83,-63.49 807.67,-63.49 811.5,-67.32 811.5,-71.16 811.5,-71.16 811.5,-78.82 811.5,-78.82 811.5,-82.66 807.67,-86.49 803.83,-86.49"/>
<text text-anchor="middle" x="746.5" y="-71.29" font-family="Arial" font-size="14.00" fill="#cfffac">../../config/metric.js</text>
</g>
<!-- ../../config/kafka.js&#45;&gt;../../config/metric.js -->
<g id="edge3" class="edge">
<title>../../config/kafka.js&#45;&gt;../../config/metric.js</title>
<path fill="none" stroke="#757575" d="M559.61,-218.34C594.47,-191.46 680.72,-124.94 722.33,-92.86"/>
<polygon fill="#757575" stroke="#757575" points="724.71,-95.44 730.49,-86.56 720.43,-89.9 724.71,-95.44"/>
</g>
<!-- ../../config/logger.js&#45;&gt;../../config/enviroment_config.js -->
<g id="edge4" class="edge">
<title>../../config/logger.js&#45;&gt;../../config/enviroment_config.js</title>
<path fill="none" stroke="#757575" d="M2009.06,-344.99C2017.28,-344.99 2025.88,-344.99 2034.59,-344.99"/>
<polygon fill="#757575" stroke="#757575" points="2034.86,-348.49 2044.86,-344.99 2034.86,-341.49 2034.86,-348.49"/>
</g>
<!-- ../../config/trace.js -->
<g id="node5" class="node">
<title>../../config/trace.js</title>
<path fill="none" stroke="#c6c5fe" d="M1720.33,-164.49C1720.33,-164.49 1613.67,-164.49 1613.67,-164.49 1609.83,-164.49 1606,-160.66 1606,-156.82 1606,-156.82 1606,-149.16 1606,-149.16 1606,-145.32 1609.83,-141.49 1613.67,-141.49 1613.67,-141.49 1720.33,-141.49 1720.33,-141.49 1724.17,-141.49 1728,-145.32 1728,-149.16 1728,-149.16 1728,-156.82 1728,-156.82 1728,-160.66 1724.17,-164.49 1720.33,-164.49"/>
<text text-anchor="middle" x="1667" y="-149.29" font-family="Arial" font-size="14.00" fill="#c6c5fe">../../config/trace.js</text>
</g>
<!-- ../../config/trace.js&#45;&gt;../../config/enviroment_config.js -->
<g id="edge5" class="edge">
<title>../../config/trace.js&#45;&gt;../../config/enviroment_config.js</title>
<path fill="none" stroke="#757575" d="M1728.22,-143.96C1799.52,-136.21 1919.84,-132.64 2009,-178.99 2071.94,-211.71 2116.68,-287.39 2135.54,-324.17"/>
<polygon fill="#757575" stroke="#757575" points="2132.57,-326.06 2140.17,-333.44 2138.83,-322.93 2132.57,-326.06"/>
</g>
<!-- ../../config/trace.js&#45;&gt;../../config/logger.js -->
<g id="edge6" class="edge">
<title>../../config/trace.js&#45;&gt;../../config/logger.js</title>
<path fill="none" stroke="#757575" d="M1722.99,-164.52C1759.77,-174.16 1807.86,-190.67 1844,-216.99 1884.3,-246.33 1916.46,-296.34 1932.46,-324.38"/>
<polygon fill="#757575" stroke="#757575" points="1929.51,-326.27 1937.43,-333.31 1935.62,-322.87 1929.51,-326.27"/>
</g>
<!-- ../../core/config/cache.js -->
<g id="node6" class="node">
<title>../../core/config/cache.js</title>
<path fill="none" stroke="#c6c5fe" d="M1738.33,-803.49C1738.33,-803.49 1595.67,-803.49 1595.67,-803.49 1591.83,-803.49 1588,-799.66 1588,-795.82 1588,-795.82 1588,-788.16 1588,-788.16 1588,-784.32 1591.83,-780.49 1595.67,-780.49 1595.67,-780.49 1738.33,-780.49 1738.33,-780.49 1742.17,-780.49 1746,-784.32 1746,-788.16 1746,-788.16 1746,-795.82 1746,-795.82 1746,-799.66 1742.17,-803.49 1738.33,-803.49"/>
<text text-anchor="middle" x="1667" y="-788.29" font-family="Arial" font-size="14.00" fill="#c6c5fe">../../core/config/cache.js</text>
</g>
<!-- ../../core/config/cache.js&#45;&gt;../../config/enviroment_config.js -->
<g id="edge7" class="edge">
<title>../../core/config/cache.js&#45;&gt;../../config/enviroment_config.js</title>
<path fill="none" stroke="#757575" d="M1746.08,-793.31C1777.65,-791.28 1813.7,-785.6 1844,-771.99 2023.5,-691.37 2115.23,-440.98 2139.09,-366.25"/>
<polygon fill="#757575" stroke="#757575" points="2142.49,-367.13 2142.12,-356.54 2135.8,-365.04 2142.49,-367.13"/>
</g>
<!-- ../../core/config/database.js -->
<g id="node7" class="node">
<title>../../core/config/database.js</title>
<path fill="none" stroke="#c6c5fe" d="M1748.33,-1131.49C1748.33,-1131.49 1585.67,-1131.49 1585.67,-1131.49 1581.83,-1131.49 1578,-1127.66 1578,-1123.82 1578,-1123.82 1578,-1116.16 1578,-1116.16 1578,-1112.32 1581.83,-1108.49 1585.67,-1108.49 1585.67,-1108.49 1748.33,-1108.49 1748.33,-1108.49 1752.17,-1108.49 1756,-1112.32 1756,-1116.16 1756,-1116.16 1756,-1123.82 1756,-1123.82 1756,-1127.66 1752.17,-1131.49 1748.33,-1131.49"/>
<text text-anchor="middle" x="1667" y="-1116.29" font-family="Arial" font-size="14.00" fill="#c6c5fe">../../core/config/database.js</text>
</g>
<!-- ../../core/config/database.js&#45;&gt;../../config/enviroment_config.js -->
<g id="edge8" class="edge">
<title>../../core/config/database.js&#45;&gt;../../config/enviroment_config.js</title>
<path fill="none" stroke="#757575" d="M1756.08,-1127.33C1786.49,-1125.63 1819.13,-1118.59 1844,-1099.99 2098.62,-909.49 2138.59,-469.51 2144.52,-366.73"/>
<polygon fill="#757575" stroke="#757575" points="2148.02,-366.8 2145.05,-356.63 2141.03,-366.43 2148.02,-366.8"/>
</g>
<!-- ../../core/entities/strategy.js -->
<g id="node8" class="node">
<title>../../core/entities/strategy.js</title>
<path fill="none" stroke="#cfffac" d="M1747.33,-475.49C1747.33,-475.49 1586.67,-475.49 1586.67,-475.49 1582.83,-475.49 1579,-471.66 1579,-467.82 1579,-467.82 1579,-460.16 1579,-460.16 1579,-456.32 1582.83,-452.49 1586.67,-452.49 1586.67,-452.49 1747.33,-452.49 1747.33,-452.49 1751.17,-452.49 1755,-456.32 1755,-460.16 1755,-460.16 1755,-467.82 1755,-467.82 1755,-471.66 1751.17,-475.49 1747.33,-475.49"/>
<text text-anchor="middle" x="1667" y="-460.29" font-family="Arial" font-size="14.00" fill="#cfffac">../../core/entities/strategy.js</text>
</g>
<!-- ../../core/layers/index.js -->
<g id="node9" class="node">
<title>../../core/layers/index.js</title>
<path fill="none" stroke="#c6c5fe" d="M613.33,-757.49C613.33,-757.49 473.67,-757.49 473.67,-757.49 469.83,-757.49 466,-753.66 466,-749.82 466,-749.82 466,-742.16 466,-742.16 466,-738.32 469.83,-734.49 473.67,-734.49 473.67,-734.49 613.33,-734.49 613.33,-734.49 617.17,-734.49 621,-738.32 621,-742.16 621,-742.16 621,-749.82 621,-749.82 621,-753.66 617.17,-757.49 613.33,-757.49"/>
<text text-anchor="middle" x="543.5" y="-742.29" font-family="Arial" font-size="14.00" fill="#c6c5fe">../../core/layers/index.js</text>
</g>
<!-- ../../core/layers/usecases.js -->
<g id="node10" class="node">
<title>../../core/layers/usecases.js</title>
<path fill="none" stroke="#c6c5fe" d="M828.33,-1080.49C828.33,-1080.49 664.67,-1080.49 664.67,-1080.49 660.83,-1080.49 657,-1076.66 657,-1072.82 657,-1072.82 657,-1065.16 657,-1065.16 657,-1061.32 660.83,-1057.49 664.67,-1057.49 664.67,-1057.49 828.33,-1057.49 828.33,-1057.49 832.17,-1057.49 836,-1061.32 836,-1065.16 836,-1065.16 836,-1072.82 836,-1072.82 836,-1076.66 832.17,-1080.49 828.33,-1080.49"/>
<text text-anchor="middle" x="746.5" y="-1065.29" font-family="Arial" font-size="14.00" fill="#c6c5fe">../../core/layers/usecases.js</text>
</g>
<!-- ../../core/layers/index.js&#45;&gt;../../core/layers/usecases.js -->
<g id="edge9" class="edge">
<title>../../core/layers/index.js&#45;&gt;../../core/layers/usecases.js</title>
<path fill="none" stroke="#757575" d="M551.89,-757.87C581.88,-806.05 694.64,-987.26 732.79,-1048.57"/>
<polygon fill="#757575" stroke="#757575" points="730,-1050.7 738.25,-1057.34 735.94,-1047 730,-1050.7"/>
</g>
<!-- ../../core/layers/providers.js -->
<g id="node11" class="node">
<title>../../core/layers/providers.js</title>
<path fill="none" stroke="#c6c5fe" d="M1070.33,-989.49C1070.33,-989.49 907.67,-989.49 907.67,-989.49 903.83,-989.49 900,-985.66 900,-981.82 900,-981.82 900,-974.16 900,-974.16 900,-970.32 903.83,-966.49 907.67,-966.49 907.67,-966.49 1070.33,-966.49 1070.33,-966.49 1074.17,-966.49 1078,-970.32 1078,-974.16 1078,-974.16 1078,-981.82 1078,-981.82 1078,-985.66 1074.17,-989.49 1070.33,-989.49"/>
<text text-anchor="middle" x="989" y="-974.29" font-family="Arial" font-size="14.00" fill="#c6c5fe">../../core/layers/providers.js</text>
</g>
<!-- ../../core/layers/usecases.js&#45;&gt;../../core/layers/providers.js -->
<g id="edge21" class="edge">
<title>../../core/layers/usecases.js&#45;&gt;../../core/layers/providers.js</title>
<path fill="none" stroke="#757575" d="M777.96,-1057.46C821.12,-1041.13 900.14,-1011.23 947.99,-993.13"/>
<polygon fill="#757575" stroke="#757575" points="949.29,-996.38 957.41,-989.56 946.82,-989.83 949.29,-996.38"/>
</g>
<!-- ../../core/usecases/login.usecase.js -->
<g id="node23" class="node">
<title>../../core/usecases/login.usecase.js</title>
<path fill="none" stroke="#c6c5fe" d="M1403.33,-1336.49C1403.33,-1336.49 1192.67,-1336.49 1192.67,-1336.49 1188.83,-1336.49 1185,-1332.66 1185,-1328.82 1185,-1328.82 1185,-1321.16 1185,-1321.16 1185,-1317.32 1188.83,-1313.49 1192.67,-1313.49 1192.67,-1313.49 1403.33,-1313.49 1403.33,-1313.49 1407.17,-1313.49 1411,-1317.32 1411,-1321.16 1411,-1321.16 1411,-1328.82 1411,-1328.82 1411,-1332.66 1407.17,-1336.49 1403.33,-1336.49"/>
<text text-anchor="middle" x="1298" y="-1321.29" font-family="Arial" font-size="14.00" fill="#c6c5fe">../../core/usecases/login.usecase.js</text>
</g>
<!-- ../../core/layers/usecases.js&#45;&gt;../../core/usecases/login.usecase.js -->
<g id="edge22" class="edge">
<title>../../core/layers/usecases.js&#45;&gt;../../core/usecases/login.usecase.js</title>
<path fill="none" stroke="#757575" d="M751.1,-1080.66C762.45,-1115.27 800.95,-1217.78 872,-1263.99 961.59,-1322.26 1084.14,-1334.39 1174.62,-1333.79"/>
<polygon fill="#757575" stroke="#757575" points="1174.7,-1337.29 1184.66,-1333.67 1174.62,-1330.29 1174.7,-1337.29"/>
</g>
<!-- ../../core/usecases/logout.usecase.js -->
<g id="node24" class="node">
<title>../../core/usecases/logout.usecase.js</title>
<path fill="none" stroke="#c6c5fe" d="M1098.33,-1254.49C1098.33,-1254.49 879.67,-1254.49 879.67,-1254.49 875.83,-1254.49 872,-1250.66 872,-1246.82 872,-1246.82 872,-1239.16 872,-1239.16 872,-1235.32 875.83,-1231.49 879.67,-1231.49 879.67,-1231.49 1098.33,-1231.49 1098.33,-1231.49 1102.17,-1231.49 1106,-1235.32 1106,-1239.16 1106,-1239.16 1106,-1246.82 1106,-1246.82 1106,-1250.66 1102.17,-1254.49 1098.33,-1254.49"/>
<text text-anchor="middle" x="989" y="-1239.29" font-family="Arial" font-size="14.00" fill="#c6c5fe">../../core/usecases/logout.usecase.js</text>
</g>
<!-- ../../core/layers/usecases.js&#45;&gt;../../core/usecases/logout.usecase.js -->
<g id="edge23" class="edge">
<title>../../core/layers/usecases.js&#45;&gt;../../core/usecases/logout.usecase.js</title>
<path fill="none" stroke="#757575" d="M758.34,-1080.62C779.01,-1102.36 826.08,-1149.86 872,-1181.99 897.4,-1199.76 928.61,-1215.89 952.26,-1227.1"/>
<polygon fill="#757575" stroke="#757575" points="951.03,-1230.38 961.57,-1231.44 953.99,-1224.04 951.03,-1230.38"/>
</g>
<!-- ../../core/usecases/mfa.usecase.js -->
<g id="node25" class="node">
<title>../../core/usecases/mfa.usecase.js</title>
<path fill="none" stroke="#c6c5fe" d="M1091.83,-1172.49C1091.83,-1172.49 886.17,-1172.49 886.17,-1172.49 882.33,-1172.49 878.5,-1168.66 878.5,-1164.82 878.5,-1164.82 878.5,-1157.16 878.5,-1157.16 878.5,-1153.32 882.33,-1149.49 886.17,-1149.49 886.17,-1149.49 1091.83,-1149.49 1091.83,-1149.49 1095.67,-1149.49 1099.5,-1153.32 1099.5,-1157.16 1099.5,-1157.16 1099.5,-1164.82 1099.5,-1164.82 1099.5,-1168.66 1095.67,-1172.49 1091.83,-1172.49"/>
<text text-anchor="middle" x="989" y="-1157.29" font-family="Arial" font-size="14.00" fill="#c6c5fe">../../core/usecases/mfa.usecase.js</text>
</g>
<!-- ../../core/layers/usecases.js&#45;&gt;../../core/usecases/mfa.usecase.js -->
<g id="edge24" class="edge">
<title>../../core/layers/usecases.js&#45;&gt;../../core/usecases/mfa.usecase.js</title>
<path fill="none" stroke="#757575" d="M777.96,-1080.64C821.24,-1097.2 900.57,-1127.54 948.38,-1145.83"/>
<polygon fill="#757575" stroke="#757575" points="947.2,-1149.13 957.79,-1149.43 949.7,-1142.59 947.2,-1149.13"/>
</g>
<!-- ../../core/usecases/mfa_choose.usecase.js -->
<g id="node26" class="node">
<title>../../core/usecases/mfa_choose.usecase.js</title>
<path fill="none" stroke="#c6c5fe" d="M1426.33,-598.49C1426.33,-598.49 1169.67,-598.49 1169.67,-598.49 1165.83,-598.49 1162,-594.66 1162,-590.82 1162,-590.82 1162,-583.16 1162,-583.16 1162,-579.32 1165.83,-575.49 1169.67,-575.49 1169.67,-575.49 1426.33,-575.49 1426.33,-575.49 1430.17,-575.49 1434,-579.32 1434,-583.16 1434,-583.16 1434,-590.82 1434,-590.82 1434,-594.66 1430.17,-598.49 1426.33,-598.49"/>
<text text-anchor="middle" x="1298" y="-583.29" font-family="Arial" font-size="14.00" fill="#c6c5fe">../../core/usecases/mfa_choose.usecase.js</text>
</g>
<!-- ../../core/layers/usecases.js&#45;&gt;../../core/usecases/mfa_choose.usecase.js -->
<g id="edge25" class="edge">
<title>../../core/layers/usecases.js&#45;&gt;../../core/usecases/mfa_choose.usecase.js</title>
<path fill="none" stroke="#757575" d="M755.58,-1057.45C801.9,-991.64 1035.34,-664.73 1142,-606.99 1145.36,-605.17 1148.82,-603.49 1152.35,-601.94"/>
<polygon fill="#757575" stroke="#757575" points="1153.89,-605.1 1161.88,-598.14 1151.3,-598.59 1153.89,-605.1"/>
</g>
<!-- ../../core/usecases/mfa_code.usecase.js -->
<g id="node27" class="node">
<title>../../core/usecases/mfa_code.usecase.js</title>
<path fill="none" stroke="#c6c5fe" d="M1418.83,-454.49C1418.83,-454.49 1177.17,-454.49 1177.17,-454.49 1173.33,-454.49 1169.5,-450.66 1169.5,-446.82 1169.5,-446.82 1169.5,-439.16 1169.5,-439.16 1169.5,-435.32 1173.33,-431.49 1177.17,-431.49 1177.17,-431.49 1418.83,-431.49 1418.83,-431.49 1422.67,-431.49 1426.5,-435.32 1426.5,-439.16 1426.5,-439.16 1426.5,-446.82 1426.5,-446.82 1426.5,-450.66 1422.67,-454.49 1418.83,-454.49"/>
<text text-anchor="middle" x="1298" y="-439.29" font-family="Arial" font-size="14.00" fill="#c6c5fe">../../core/usecases/mfa_code.usecase.js</text>
</g>
<!-- ../../core/layers/usecases.js&#45;&gt;../../core/usecases/mfa_code.usecase.js -->
<g id="edge26" class="edge">
<title>../../core/layers/usecases.js&#45;&gt;../../core/usecases/mfa_code.usecase.js</title>
<path fill="none" stroke="#757575" d="M747.42,-1057.21C747.65,-1002.02 755.64,-766.02 872,-631.99 963.27,-526.86 1124.35,-477.61 1219.83,-456.66"/>
<polygon fill="#757575" stroke="#757575" points="1220.67,-460.06 1229.71,-454.54 1219.2,-453.21 1220.67,-460.06"/>
</g>
<!-- ../../core/usecases/user.usecase.js -->
<g id="node28" class="node">
<title>../../core/usecases/user.usecase.js</title>
<path fill="none" stroke="#c6c5fe" d="M1401.83,-1417.49C1401.83,-1417.49 1194.17,-1417.49 1194.17,-1417.49 1190.33,-1417.49 1186.5,-1413.66 1186.5,-1409.82 1186.5,-1409.82 1186.5,-1402.16 1186.5,-1402.16 1186.5,-1398.32 1190.33,-1394.49 1194.17,-1394.49 1194.17,-1394.49 1401.83,-1394.49 1401.83,-1394.49 1405.67,-1394.49 1409.5,-1398.32 1409.5,-1402.16 1409.5,-1402.16 1409.5,-1409.82 1409.5,-1409.82 1409.5,-1413.66 1405.67,-1417.49 1401.83,-1417.49"/>
<text text-anchor="middle" x="1298" y="-1402.29" font-family="Arial" font-size="14.00" fill="#c6c5fe">../../core/usecases/user.usecase.js</text>
</g>
<!-- ../../core/layers/usecases.js&#45;&gt;../../core/usecases/user.usecase.js -->
<g id="edge27" class="edge">
<title>../../core/layers/usecases.js&#45;&gt;../../core/usecases/user.usecase.js</title>
<path fill="none" stroke="#757575" d="M749.81,-1080.57C758.28,-1119.81 791.43,-1248.74 872,-1310.99 958.94,-1378.15 1084.1,-1399.68 1176.09,-1405.74"/>
<polygon fill="#757575" stroke="#757575" points="1176.1,-1409.24 1186.29,-1406.35 1176.52,-1402.25 1176.1,-1409.24"/>
</g>
<!-- ../../core/layers/services.js -->
<g id="node12" class="node">
<title>../../core/layers/services.js</title>
<path fill="none" stroke="#c6c5fe" d="M1376.33,-969.49C1376.33,-969.49 1219.67,-969.49 1219.67,-969.49 1215.83,-969.49 1212,-965.66 1212,-961.82 1212,-961.82 1212,-954.16 1212,-954.16 1212,-950.32 1215.83,-946.49 1219.67,-946.49 1219.67,-946.49 1376.33,-946.49 1376.33,-946.49 1380.17,-946.49 1384,-950.32 1384,-954.16 1384,-954.16 1384,-961.82 1384,-961.82 1384,-965.66 1380.17,-969.49 1376.33,-969.49"/>
<text text-anchor="middle" x="1298" y="-954.29" font-family="Arial" font-size="14.00" fill="#c6c5fe">../../core/layers/services.js</text>
</g>
<!-- ../../core/layers/providers.js&#45;&gt;../../core/layers/services.js -->
<g id="edge10" class="edge">
<title>../../core/layers/providers.js&#45;&gt;../../core/layers/services.js</title>
<path fill="none" stroke="#757575" d="M1078.39,-972.23C1117,-969.71 1162.37,-966.76 1201.74,-964.19"/>
<polygon fill="#757575" stroke="#757575" points="1202.13,-967.68 1211.88,-963.53 1201.67,-960.69 1202.13,-967.68"/>
</g>
<!-- ../../core/providers/email.repository.js -->
<g id="node13" class="node">
<title>../../core/providers/email.repository.js</title>
<path fill="none" stroke="#c6c5fe" d="M1408.83,-1010.49C1408.83,-1010.49 1187.17,-1010.49 1187.17,-1010.49 1183.33,-1010.49 1179.5,-1006.66 1179.5,-1002.82 1179.5,-1002.82 1179.5,-995.16 1179.5,-995.16 1179.5,-991.32 1183.33,-987.49 1187.17,-987.49 1187.17,-987.49 1408.83,-987.49 1408.83,-987.49 1412.67,-987.49 1416.5,-991.32 1416.5,-995.16 1416.5,-995.16 1416.5,-1002.82 1416.5,-1002.82 1416.5,-1006.66 1412.67,-1010.49 1408.83,-1010.49"/>
<text text-anchor="middle" x="1298" y="-995.29" font-family="Arial" font-size="14.00" fill="#c6c5fe">../../core/providers/email.repository.js</text>
</g>
<!-- ../../core/layers/providers.js&#45;&gt;../../core/providers/email.repository.js -->
<g id="edge11" class="edge">
<title>../../core/layers/providers.js&#45;&gt;../../core/providers/email.repository.js</title>
<path fill="none" stroke="#757575" d="M1078.39,-984.03C1106.63,-985.97 1138.49,-988.15 1168.97,-990.23"/>
<polygon fill="#757575" stroke="#757575" points="1169.04,-993.74 1179.25,-990.93 1169.51,-986.76 1169.04,-993.74"/>
</g>
<!-- ../../core/providers/mfa.repository.js -->
<g id="node14" class="node">
<title>../../core/providers/mfa.repository.js</title>
<path fill="none" stroke="#c6c5fe" d="M1403.83,-1051.49C1403.83,-1051.49 1192.17,-1051.49 1192.17,-1051.49 1188.33,-1051.49 1184.5,-1047.66 1184.5,-1043.82 1184.5,-1043.82 1184.5,-1036.16 1184.5,-1036.16 1184.5,-1032.32 1188.33,-1028.49 1192.17,-1028.49 1192.17,-1028.49 1403.83,-1028.49 1403.83,-1028.49 1407.67,-1028.49 1411.5,-1032.32 1411.5,-1036.16 1411.5,-1036.16 1411.5,-1043.82 1411.5,-1043.82 1411.5,-1047.66 1407.67,-1051.49 1403.83,-1051.49"/>
<text text-anchor="middle" x="1298" y="-1036.29" font-family="Arial" font-size="14.00" fill="#c6c5fe">../../core/providers/mfa.repository.js</text>
</g>
<!-- ../../core/layers/providers.js&#45;&gt;../../core/providers/mfa.repository.js -->
<g id="edge12" class="edge">
<title>../../core/layers/providers.js&#45;&gt;../../core/providers/mfa.repository.js</title>
<path fill="none" stroke="#757575" d="M1026.2,-989.55C1056.78,-998.93 1101.88,-1011.9 1142,-1019.99 1154.82,-1022.57 1168.31,-1024.89 1181.77,-1026.96"/>
<polygon fill="#757575" stroke="#757575" points="1181.63,-1030.48 1192.03,-1028.49 1182.66,-1023.55 1181.63,-1030.48"/>
</g>
<!-- ../../core/providers/mfa_choose.repository.js -->
<g id="node15" class="node">
<title>../../core/providers/mfa_choose.repository.js</title>
<path fill="none" stroke="#c6c5fe" d="M1429.33,-762.49C1429.33,-762.49 1166.67,-762.49 1166.67,-762.49 1162.83,-762.49 1159,-758.66 1159,-754.82 1159,-754.82 1159,-747.16 1159,-747.16 1159,-743.32 1162.83,-739.49 1166.67,-739.49 1166.67,-739.49 1429.33,-739.49 1429.33,-739.49 1433.17,-739.49 1437,-743.32 1437,-747.16 1437,-747.16 1437,-754.82 1437,-754.82 1437,-758.66 1433.17,-762.49 1429.33,-762.49"/>
<text text-anchor="middle" x="1298" y="-747.29" font-family="Arial" font-size="14.00" fill="#c6c5fe">../../core/providers/mfa_choose.repository.js</text>
</g>
<!-- ../../core/layers/providers.js&#45;&gt;../../core/providers/mfa_choose.repository.js -->
<g id="edge13" class="edge">
<title>../../core/layers/providers.js&#45;&gt;../../core/providers/mfa_choose.repository.js</title>
<path fill="none" stroke="#757575" d="M997.87,-966.35C1018.34,-936.85 1076.26,-858.3 1142,-812.99 1173.12,-791.54 1212.74,-775.86 1244.14,-765.63"/>
<polygon fill="#757575" stroke="#757575" points="1245.55,-768.86 1254.03,-762.5 1243.44,-762.18 1245.55,-768.86"/>
</g>
<!-- ../../core/providers/mfa_code.repository.js -->
<g id="node16" class="node">
<title>../../core/providers/mfa_code.repository.js</title>
<path fill="none" stroke="#c6c5fe" d="M1422.33,-639.49C1422.33,-639.49 1173.67,-639.49 1173.67,-639.49 1169.83,-639.49 1166,-635.66 1166,-631.82 1166,-631.82 1166,-624.16 1166,-624.16 1166,-620.32 1169.83,-616.49 1173.67,-616.49 1173.67,-616.49 1422.33,-616.49 1422.33,-616.49 1426.17,-616.49 1430,-620.32 1430,-624.16 1430,-624.16 1430,-631.82 1430,-631.82 1430,-635.66 1426.17,-639.49 1422.33,-639.49"/>
<text text-anchor="middle" x="1298" y="-624.29" font-family="Arial" font-size="14.00" fill="#c6c5fe">../../core/providers/mfa_code.repository.js</text>
</g>
<!-- ../../core/layers/providers.js&#45;&gt;../../core/providers/mfa_code.repository.js -->
<g id="edge14" class="edge">
<title>../../core/layers/providers.js&#45;&gt;../../core/providers/mfa_code.repository.js</title>
<path fill="none" stroke="#757575" d="M994.89,-966.48C1011.22,-929.02 1067.15,-808.5 1142,-730.99 1178.31,-693.39 1230.64,-662.17 1264.23,-644.29"/>
<polygon fill="#757575" stroke="#757575" points="1265.94,-647.35 1273.18,-639.61 1262.69,-641.14 1265.94,-647.35"/>
</g>
<!-- ../../core/providers/token.repository.js -->
<g id="node17" class="node">
<title>../../core/providers/token.repository.js</title>
<path fill="none" stroke="#c6c5fe" d="M1408.83,-844.49C1408.83,-844.49 1187.17,-844.49 1187.17,-844.49 1183.33,-844.49 1179.5,-840.66 1179.5,-836.82 1179.5,-836.82 1179.5,-829.16 1179.5,-829.16 1179.5,-825.32 1183.33,-821.49 1187.17,-821.49 1187.17,-821.49 1408.83,-821.49 1408.83,-821.49 1412.67,-821.49 1416.5,-825.32 1416.5,-829.16 1416.5,-829.16 1416.5,-836.82 1416.5,-836.82 1416.5,-840.66 1412.67,-844.49 1408.83,-844.49"/>
<text text-anchor="middle" x="1298" y="-829.29" font-family="Arial" font-size="14.00" fill="#c6c5fe">../../core/providers/token.repository.js</text>
</g>
<!-- ../../core/layers/providers.js&#45;&gt;../../core/providers/token.repository.js -->
<g id="edge15" class="edge">
<title>../../core/layers/providers.js&#45;&gt;../../core/providers/token.repository.js</title>
<path fill="none" stroke="#757575" d="M1014.6,-966.37C1069.17,-940.6 1200.42,-878.61 1262.87,-849.11"/>
<polygon fill="#757575" stroke="#757575" points="1264.73,-852.1 1272.28,-844.66 1261.74,-845.77 1264.73,-852.1"/>
</g>
<!-- ../../core/providers/user.repository.js -->
<g id="node18" class="node">
<title>../../core/providers/user.repository.js</title>
<path fill="none" stroke="#c6c5fe" d="M1405.33,-1131.49C1405.33,-1131.49 1190.67,-1131.49 1190.67,-1131.49 1186.83,-1131.49 1183,-1127.66 1183,-1123.82 1183,-1123.82 1183,-1116.16 1183,-1116.16 1183,-1112.32 1186.83,-1108.49 1190.67,-1108.49 1190.67,-1108.49 1405.33,-1108.49 1405.33,-1108.49 1409.17,-1108.49 1413,-1112.32 1413,-1116.16 1413,-1116.16 1413,-1123.82 1413,-1123.82 1413,-1127.66 1409.17,-1131.49 1405.33,-1131.49"/>
<text text-anchor="middle" x="1298" y="-1116.29" font-family="Arial" font-size="14.00" fill="#c6c5fe">../../core/providers/user.repository.js</text>
</g>
<!-- ../../core/layers/providers.js&#45;&gt;../../core/providers/user.repository.js -->
<g id="edge16" class="edge">
<title>../../core/layers/providers.js&#45;&gt;../../core/providers/user.repository.js</title>
<path fill="none" stroke="#757575" d="M1009.24,-989.6C1037.67,-1006.51 1092.85,-1038.34 1142,-1060.99 1178.58,-1077.84 1221.45,-1093.89 1252.83,-1104.98"/>
<polygon fill="#757575" stroke="#757575" points="1251.99,-1108.4 1262.59,-1108.41 1254.31,-1101.79 1251.99,-1108.4"/>
</g>
<!-- ../../core/services/code.service.js -->
<g id="node19" class="node">
<title>../../core/services/code.service.js</title>
<path fill="none" stroke="#cfffac" d="M1765.33,-1049.49C1765.33,-1049.49 1568.67,-1049.49 1568.67,-1049.49 1564.83,-1049.49 1561,-1045.66 1561,-1041.82 1561,-1041.82 1561,-1034.16 1561,-1034.16 1561,-1030.32 1564.83,-1026.49 1568.67,-1026.49 1568.67,-1026.49 1765.33,-1026.49 1765.33,-1026.49 1769.17,-1026.49 1773,-1030.32 1773,-1034.16 1773,-1034.16 1773,-1041.82 1773,-1041.82 1773,-1045.66 1769.17,-1049.49 1765.33,-1049.49"/>
<text text-anchor="middle" x="1667" y="-1034.29" font-family="Arial" font-size="14.00" fill="#cfffac">../../core/services/code.service.js</text>
</g>
<!-- ../../core/layers/services.js&#45;&gt;../../core/services/code.service.js -->
<g id="edge17" class="edge">
<title>../../core/layers/services.js&#45;&gt;../../core/services/code.service.js</title>
<path fill="none" stroke="#757575" d="M1384.26,-958.99C1407.86,-962.02 1432.8,-967.95 1454,-978.99 1474.92,-989.88 1468.96,-1007.32 1490,-1017.99 1508.59,-1027.41 1529.67,-1033.25 1550.62,-1036.74"/>
<polygon fill="#757575" stroke="#757575" points="1550.14,-1040.2 1560.55,-1038.22 1551.18,-1033.28 1550.14,-1040.2"/>
</g>
<!-- ../../core/services/email.service.js -->
<g id="node20" class="node">
<title>../../core/services/email.service.js</title>
<path fill="none" stroke="#c6c5fe" d="M1766.83,-926.49C1766.83,-926.49 1567.17,-926.49 1567.17,-926.49 1563.33,-926.49 1559.5,-922.66 1559.5,-918.82 1559.5,-918.82 1559.5,-911.16 1559.5,-911.16 1559.5,-907.32 1563.33,-903.49 1567.17,-903.49 1567.17,-903.49 1766.83,-903.49 1766.83,-903.49 1770.67,-903.49 1774.5,-907.32 1774.5,-911.16 1774.5,-911.16 1774.5,-918.82 1774.5,-918.82 1774.5,-922.66 1770.67,-926.49 1766.83,-926.49"/>
<text text-anchor="middle" x="1667" y="-911.29" font-family="Arial" font-size="14.00" fill="#c6c5fe">../../core/services/email.service.js</text>
</g>
<!-- ../../core/layers/services.js&#45;&gt;../../core/services/email.service.js -->
<g id="edge18" class="edge">
<title>../../core/layers/services.js&#45;&gt;../../core/services/email.service.js</title>
<path fill="none" stroke="#757575" d="M1384.12,-948.02C1435.75,-941.97 1502.13,-934.19 1557.51,-927.7"/>
<polygon fill="#757575" stroke="#757575" points="1558.19,-931.14 1567.71,-926.5 1557.37,-924.19 1558.19,-931.14"/>
</g>
<!-- ../../core/services/password.service.js -->
<g id="node21" class="node">
<title>../../core/services/password.service.js</title>
<path fill="none" stroke="#cfffac" d="M1779.33,-1008.49C1779.33,-1008.49 1554.67,-1008.49 1554.67,-1008.49 1550.83,-1008.49 1547,-1004.66 1547,-1000.82 1547,-1000.82 1547,-993.16 1547,-993.16 1547,-989.32 1550.83,-985.49 1554.67,-985.49 1554.67,-985.49 1779.33,-985.49 1779.33,-985.49 1783.17,-985.49 1787,-989.32 1787,-993.16 1787,-993.16 1787,-1000.82 1787,-1000.82 1787,-1004.66 1783.17,-1008.49 1779.33,-1008.49"/>
<text text-anchor="middle" x="1667" y="-993.29" font-family="Arial" font-size="14.00" fill="#cfffac">../../core/services/password.service.js</text>
</g>
<!-- ../../core/layers/services.js&#45;&gt;../../core/services/password.service.js -->
<g id="edge19" class="edge">
<title>../../core/layers/services.js&#45;&gt;../../core/services/password.service.js</title>
<path fill="none" stroke="#757575" d="M1384.12,-967.03C1432.66,-972.19 1494.24,-978.74 1547.45,-984.39"/>
<polygon fill="#757575" stroke="#757575" points="1547.31,-987.9 1557.63,-985.47 1548.05,-980.93 1547.31,-987.9"/>
</g>
<!-- ../../core/services/uuid.service.js -->
<g id="node22" class="node">
<title>../../core/services/uuid.service.js</title>
<path fill="none" stroke="#cfffac" d="M1763.33,-967.49C1763.33,-967.49 1570.67,-967.49 1570.67,-967.49 1566.83,-967.49 1563,-963.66 1563,-959.82 1563,-959.82 1563,-952.16 1563,-952.16 1563,-948.32 1566.83,-944.49 1570.67,-944.49 1570.67,-944.49 1763.33,-944.49 1763.33,-944.49 1767.17,-944.49 1771,-948.32 1771,-952.16 1771,-952.16 1771,-959.82 1771,-959.82 1771,-963.66 1767.17,-967.49 1763.33,-967.49"/>
<text text-anchor="middle" x="1667" y="-952.29" font-family="Arial" font-size="14.00" fill="#cfffac">../../core/services/uuid.service.js</text>
</g>
<!-- ../../core/layers/services.js&#45;&gt;../../core/services/uuid.service.js -->
<g id="edge20" class="edge">
<title>../../core/layers/services.js&#45;&gt;../../core/services/uuid.service.js</title>
<path fill="none" stroke="#757575" d="M1384.12,-957.52C1434.25,-957.25 1498.3,-956.9 1552.67,-956.61"/>
<polygon fill="#757575" stroke="#757575" points="1552.72,-960.11 1562.7,-956.55 1552.68,-953.11 1552.72,-960.11"/>
</g>
<!-- ../../core/providers/email.repository.js&#45;&gt;../../core/config/database.js -->
<g id="edge28" class="edge">
<title>../../core/providers/email.repository.js&#45;&gt;../../core/config/database.js</title>
<path fill="none" stroke="#757575" d="M1416.65,-1001.88C1430.07,-1005.89 1442.9,-1011.7 1454,-1019.99 1485.24,-1043.31 1458.51,-1077 1490,-1099.99 1512.23,-1116.22 1540.43,-1123.54 1567.71,-1126.21"/>
<polygon fill="#757575" stroke="#757575" points="1567.47,-1129.7 1577.71,-1126.98 1568.01,-1122.72 1567.47,-1129.7"/>
</g>
<!-- ../../core/usecases/driven/sending_mfa_code.driven.js -->
<g id="node29" class="node">
<title>../../core/usecases/driven/sending_mfa_code.driven.js</title>
<path fill="none" stroke="#cfffac" d="M1828.83,-1090.49C1828.83,-1090.49 1505.17,-1090.49 1505.17,-1090.49 1501.33,-1090.49 1497.5,-1086.66 1497.5,-1082.82 1497.5,-1082.82 1497.5,-1075.16 1497.5,-1075.16 1497.5,-1071.32 1501.33,-1067.49 1505.17,-1067.49 1505.17,-1067.49 1828.83,-1067.49 1828.83,-1067.49 1832.67,-1067.49 1836.5,-1071.32 1836.5,-1075.16 1836.5,-1075.16 1836.5,-1082.82 1836.5,-1082.82 1836.5,-1086.66 1832.67,-1090.49 1828.83,-1090.49"/>
<text text-anchor="middle" x="1667" y="-1075.29" font-family="Arial" font-size="14.00" fill="#cfffac">../../core/usecases/driven/sending_mfa_code.driven.js</text>
</g>
<!-- ../../core/providers/email.repository.js&#45;&gt;../../core/usecases/driven/sending_mfa_code.driven.js -->
<g id="edge29" class="edge">
<title>../../core/providers/email.repository.js&#45;&gt;../../core/usecases/driven/sending_mfa_code.driven.js</title>
<path fill="none" stroke="#757575" d="M1416.8,-1006.13C1429.76,-1009.47 1442.44,-1013.97 1454,-1019.99 1474.92,-1030.88 1468.96,-1048.32 1490,-1058.99 1493.35,-1060.69 1496.78,-1062.27 1500.28,-1063.74"/>
<polygon fill="#757575" stroke="#757575" points="1499.1,-1067.04 1509.68,-1067.39 1501.63,-1060.51 1499.1,-1067.04"/>
</g>
<!-- ../../core/providers/mfa.repository.js&#45;&gt;../../core/config/database.js -->
<g id="edge30" class="edge">
<title>../../core/providers/mfa.repository.js&#45;&gt;../../core/config/database.js</title>
<path fill="none" stroke="#757575" d="M1411.58,-1050.75C1426.28,-1054.48 1440.81,-1059.43 1454,-1065.99 1473.71,-1075.79 1470.04,-1090.71 1490,-1099.99 1513.99,-1111.13 1541.72,-1117.05 1567.98,-1119.99"/>
<polygon fill="#757575" stroke="#757575" points="1567.67,-1123.47 1577.96,-1120.97 1568.35,-1116.51 1567.67,-1123.47"/>
</g>
<!-- ../../core/providers/mfa.repository.js&#45;&gt;../../core/entities/strategy.js -->
<g id="edge31" class="edge">
<title>../../core/providers/mfa.repository.js&#45;&gt;../../core/entities/strategy.js</title>
<path fill="none" stroke="#757575" d="M1411.66,-1043.95C1427.68,-1039.61 1442.57,-1032.14 1454,-1019.99 1535.79,-933.03 1407.55,-570.33 1490,-483.99 1513.96,-458.9 1550.99,-452.04 1584.91,-452.21"/>
<polygon fill="#757575" stroke="#757575" points="1585.24,-455.72 1595.32,-452.48 1585.42,-448.72 1585.24,-455.72"/>
</g>
<!-- ../../core/usecases/driven/creating_mfa.driven.js -->
<g id="node30" class="node">
<title>../../core/usecases/driven/creating_mfa.driven.js</title>
<path fill="none" stroke="#cfffac" d="M1810.83,-1172.49C1810.83,-1172.49 1523.17,-1172.49 1523.17,-1172.49 1519.33,-1172.49 1515.5,-1168.66 1515.5,-1164.82 1515.5,-1164.82 1515.5,-1157.16 1515.5,-1157.16 1515.5,-1153.32 1519.33,-1149.49 1523.17,-1149.49 1523.17,-1149.49 1810.83,-1149.49 1810.83,-1149.49 1814.67,-1149.49 1818.5,-1153.32 1818.5,-1157.16 1818.5,-1157.16 1818.5,-1164.82 1818.5,-1164.82 1818.5,-1168.66 1814.67,-1172.49 1810.83,-1172.49"/>
<text text-anchor="middle" x="1667" y="-1157.29" font-family="Arial" font-size="14.00" fill="#cfffac">../../core/usecases/driven/creating_mfa.driven.js</text>
</g>
<!-- ../../core/providers/mfa.repository.js&#45;&gt;../../core/usecases/driven/creating_mfa.driven.js -->
<g id="edge32" class="edge">
<title>../../core/providers/mfa.repository.js&#45;&gt;../../core/usecases/driven/creating_mfa.driven.js</title>
<path fill="none" stroke="#757575" d="M1411.83,-1045.75C1426.99,-1050.17 1441.57,-1056.64 1454,-1065.99 1483.55,-1088.21 1459.87,-1119.56 1490,-1140.99 1494.98,-1144.53 1500.24,-1147.64 1505.72,-1150.37"/>
<polygon fill="#757575" stroke="#757575" points="1504.57,-1153.69 1515.12,-1154.6 1507.44,-1147.3 1504.57,-1153.69"/>
</g>
<!-- ../../core/usecases/driven/finding_mfa.driven.js -->
<g id="node31" class="node">
<title>../../core/usecases/driven/finding_mfa.driven.js</title>
<path fill="none" stroke="#cfffac" d="M1806.83,-1213.49C1806.83,-1213.49 1527.17,-1213.49 1527.17,-1213.49 1523.33,-1213.49 1519.5,-1209.66 1519.5,-1205.82 1519.5,-1205.82 1519.5,-1198.16 1519.5,-1198.16 1519.5,-1194.32 1523.33,-1190.49 1527.17,-1190.49 1527.17,-1190.49 1806.83,-1190.49 1806.83,-1190.49 1810.67,-1190.49 1814.5,-1194.32 1814.5,-1198.16 1814.5,-1198.16 1814.5,-1205.82 1814.5,-1205.82 1814.5,-1209.66 1810.67,-1213.49 1806.83,-1213.49"/>
<text text-anchor="middle" x="1667" y="-1198.29" font-family="Arial" font-size="14.00" fill="#cfffac">../../core/usecases/driven/finding_mfa.driven.js</text>
</g>
<!-- ../../core/providers/mfa.repository.js&#45;&gt;../../core/usecases/driven/finding_mfa.driven.js -->
<g id="edge33" class="edge">
<title>../../core/providers/mfa.repository.js&#45;&gt;../../core/usecases/driven/finding_mfa.driven.js</title>
<path fill="none" stroke="#757575" d="M1359.13,-1051.56C1390.67,-1060.29 1428.04,-1075.16 1454,-1099.99 1482.76,-1127.5 1457.96,-1158.37 1490,-1181.99 1496.13,-1186.5 1502.71,-1190.33 1509.62,-1193.57"/>
<polygon fill="#757575" stroke="#757575" points="1508.63,-1196.95 1519.21,-1197.62 1511.36,-1190.5 1508.63,-1196.95"/>
</g>
<!-- ../../core/providers/mfa_choose.repository.js&#45;&gt;../../core/config/cache.js -->
<g id="edge34" class="edge">
<title>../../core/providers/mfa_choose.repository.js&#45;&gt;../../core/config/cache.js</title>
<path fill="none" stroke="#757575" d="M1402.21,-762.52C1457.58,-768.7 1525.1,-776.25 1577.96,-782.15"/>
<polygon fill="#757575" stroke="#757575" points="1577.67,-785.64 1588,-783.27 1578.45,-778.69 1577.67,-785.64"/>
</g>
<!-- ../../core/usecases/driven/creating_mfa_choose.driven.js -->
<g id="node32" class="node">
<title>../../core/usecases/driven/creating_mfa_choose.driven.js</title>
<path fill="none" stroke="#cfffac" d="M1836.33,-762.49C1836.33,-762.49 1497.67,-762.49 1497.67,-762.49 1493.83,-762.49 1490,-758.66 1490,-754.82 1490,-754.82 1490,-747.16 1490,-747.16 1490,-743.32 1493.83,-739.49 1497.67,-739.49 1497.67,-739.49 1836.33,-739.49 1836.33,-739.49 1840.17,-739.49 1844,-743.32 1844,-747.16 1844,-747.16 1844,-754.82 1844,-754.82 1844,-758.66 1840.17,-762.49 1836.33,-762.49"/>
<text text-anchor="middle" x="1667" y="-747.29" font-family="Arial" font-size="14.00" fill="#cfffac">../../core/usecases/driven/creating_mfa_choose.driven.js</text>
</g>
<!-- ../../core/providers/mfa_choose.repository.js&#45;&gt;../../core/usecases/driven/creating_mfa_choose.driven.js -->
<g id="edge35" class="edge">
<title>../../core/providers/mfa_choose.repository.js&#45;&gt;../../core/usecases/driven/creating_mfa_choose.driven.js</title>
<path fill="none" stroke="#757575" d="M1437.22,-750.99C1451.04,-750.99 1465.22,-750.99 1479.43,-750.99"/>
<polygon fill="#757575" stroke="#757575" points="1479.77,-754.49 1489.77,-750.99 1479.77,-747.49 1479.77,-754.49"/>
</g>
<!-- ../../core/usecases/driven/finding_mfa_choose.driven.js -->
<g id="node33" class="node">
<title>../../core/usecases/driven/finding_mfa_choose.driven.js</title>
<path fill="none" stroke="#cfffac" d="M1832.33,-598.49C1832.33,-598.49 1501.67,-598.49 1501.67,-598.49 1497.83,-598.49 1494,-594.66 1494,-590.82 1494,-590.82 1494,-583.16 1494,-583.16 1494,-579.32 1497.83,-575.49 1501.67,-575.49 1501.67,-575.49 1832.33,-575.49 1832.33,-575.49 1836.17,-575.49 1840,-579.32 1840,-583.16 1840,-583.16 1840,-590.82 1840,-590.82 1840,-594.66 1836.17,-598.49 1832.33,-598.49"/>
<text text-anchor="middle" x="1667" y="-583.29" font-family="Arial" font-size="14.00" fill="#cfffac">../../core/usecases/driven/finding_mfa_choose.driven.js</text>
</g>
<!-- ../../core/providers/mfa_choose.repository.js&#45;&gt;../../core/usecases/driven/finding_mfa_choose.driven.js -->
<g id="edge36" class="edge">
<title>../../core/providers/mfa_choose.repository.js&#45;&gt;../../core/usecases/driven/finding_mfa_choose.driven.js</title>
<path fill="none" stroke="#757575" d="M1320.63,-739.35C1351.86,-721.98 1410.61,-687.21 1454,-648.99 1472.45,-632.74 1468.28,-618.51 1490,-606.99 1492.99,-605.4 1496.04,-603.92 1499.16,-602.53"/>
<polygon fill="#757575" stroke="#757575" points="1500.74,-605.66 1508.66,-598.62 1498.08,-599.19 1500.74,-605.66"/>
</g>
<!-- ../../core/providers/mfa_code.repository.js&#45;&gt;../../core/config/cache.js -->
<g id="edge37" class="edge">
<title>../../core/providers/mfa_code.repository.js&#45;&gt;../../core/config/cache.js</title>
<path fill="none" stroke="#757575" d="M1320.04,-639.57C1351.05,-657.14 1410.09,-692.61 1454,-730.99 1472.26,-746.95 1468.51,-760.75 1490,-771.99 1516.57,-785.88 1548.44,-792.09 1577.7,-794.46"/>
<polygon fill="#757575" stroke="#757575" points="1577.72,-797.97 1587.93,-795.14 1578.19,-790.98 1577.72,-797.97"/>
</g>
<!-- ../../core/usecases/driven/creating_mfa_code.driven.js -->
<g id="node34" class="node">
<title>../../core/usecases/driven/creating_mfa_code.driven.js</title>
<path fill="none" stroke="#cfffac" d="M1829.33,-557.49C1829.33,-557.49 1504.67,-557.49 1504.67,-557.49 1500.83,-557.49 1497,-553.66 1497,-549.82 1497,-549.82 1497,-542.16 1497,-542.16 1497,-538.32 1500.83,-534.49 1504.67,-534.49 1504.67,-534.49 1829.33,-534.49 1829.33,-534.49 1833.17,-534.49 1837,-538.32 1837,-542.16 1837,-542.16 1837,-549.82 1837,-549.82 1837,-553.66 1833.17,-557.49 1829.33,-557.49"/>
<text text-anchor="middle" x="1667" y="-542.29" font-family="Arial" font-size="14.00" fill="#cfffac">../../core/usecases/driven/creating_mfa_code.driven.js</text>
</g>
<!-- ../../core/providers/mfa_code.repository.js&#45;&gt;../../core/usecases/driven/creating_mfa_code.driven.js -->
<g id="edge38" class="edge">
<title>../../core/providers/mfa_code.repository.js&#45;&gt;../../core/usecases/driven/creating_mfa_code.driven.js</title>
<path fill="none" stroke="#757575" d="M1430.15,-617.19C1438.43,-614.4 1446.46,-611.03 1454,-606.99 1475.37,-595.52 1468.51,-577.22 1490,-565.99 1493.16,-564.34 1496.4,-562.79 1499.7,-561.35"/>
<polygon fill="#757575" stroke="#757575" points="1501.17,-564.53 1509.14,-557.55 1498.56,-558.03 1501.17,-564.53"/>
</g>
<!-- ../../core/usecases/driven/finding_mfa_code.driven.js -->
<g id="node35" class="node">
<title>../../core/usecases/driven/finding_mfa_code.driven.js</title>
<path fill="none" stroke="#cfffac" d="M1825.33,-680.49C1825.33,-680.49 1508.67,-680.49 1508.67,-680.49 1504.83,-680.49 1501,-676.66 1501,-672.82 1501,-672.82 1501,-665.16 1501,-665.16 1501,-661.32 1504.83,-657.49 1508.67,-657.49 1508.67,-657.49 1825.33,-657.49 1825.33,-657.49 1829.17,-657.49 1833,-661.32 1833,-665.16 1833,-665.16 1833,-672.82 1833,-672.82 1833,-676.66 1829.17,-680.49 1825.33,-680.49"/>
<text text-anchor="middle" x="1667" y="-665.29" font-family="Arial" font-size="14.00" fill="#cfffac">../../core/usecases/driven/finding_mfa_code.driven.js</text>
</g>
<!-- ../../core/providers/mfa_code.repository.js&#45;&gt;../../core/usecases/driven/finding_mfa_code.driven.js -->
<g id="edge39" class="edge">
<title>../../core/providers/mfa_code.repository.js&#45;&gt;../../core/usecases/driven/finding_mfa_code.driven.js</title>
<path fill="none" stroke="#757575" d="M1402.21,-639.52C1449.12,-644.76 1504.75,-650.97 1552.8,-656.34"/>
<polygon fill="#757575" stroke="#757575" points="1552.61,-659.84 1562.93,-657.47 1553.38,-652.89 1552.61,-659.84"/>
</g>
<!-- ../../core/usecases/driven/validating_code.driven.js -->
<g id="node36" class="node">
<title>../../core/usecases/driven/validating_code.driven.js</title>
<path fill="none" stroke="#cfffac" d="M1818.33,-639.49C1818.33,-639.49 1515.67,-639.49 1515.67,-639.49 1511.83,-639.49 1508,-635.66 1508,-631.82 1508,-631.82 1508,-624.16 1508,-624.16 1508,-620.32 1511.83,-616.49 1515.67,-616.49 1515.67,-616.49 1818.33,-616.49 1818.33,-616.49 1822.17,-616.49 1826,-620.32 1826,-624.16 1826,-624.16 1826,-631.82 1826,-631.82 1826,-635.66 1822.17,-639.49 1818.33,-639.49"/>
<text text-anchor="middle" x="1667" y="-624.29" font-family="Arial" font-size="14.00" fill="#cfffac">../../core/usecases/driven/validating_code.driven.js</text>
</g>
<!-- ../../core/providers/mfa_code.repository.js&#45;&gt;../../core/usecases/driven/validating_code.driven.js -->
<g id="edge40" class="edge">
<title>../../core/providers/mfa_code.repository.js&#45;&gt;../../core/usecases/driven/validating_code.driven.js</title>
<path fill="none" stroke="#757575" d="M1430.2,-627.99C1452.16,-627.99 1475.2,-627.99 1497.93,-627.99"/>
<polygon fill="#757575" stroke="#757575" points="1498,-631.49 1508,-627.99 1498,-624.49 1498,-631.49"/>
</g>
<!-- ../../core/providers/token.repository.js&#45;&gt;../../core/config/cache.js -->
<g id="edge41" class="edge">
<title>../../core/providers/token.repository.js&#45;&gt;../../core/config/cache.js</title>
<path fill="none" stroke="#757575" d="M1402.21,-821.46C1457.58,-815.27 1525.1,-807.73 1577.96,-801.82"/>
<polygon fill="#757575" stroke="#757575" points="1578.45,-805.29 1588,-800.7 1577.67,-798.33 1578.45,-805.29"/>
</g>
<!-- ../../core/usecases/driven/creating_token.driven.js -->
<g id="node37" class="node">
<title>../../core/usecases/driven/creating_token.driven.js</title>
<path fill="none" stroke="#cfffac" d="M1815.83,-885.49C1815.83,-885.49 1518.17,-885.49 1518.17,-885.49 1514.33,-885.49 1510.5,-881.66 1510.5,-877.82 1510.5,-877.82 1510.5,-870.16 1510.5,-870.16 1510.5,-866.32 1514.33,-862.49 1518.17,-862.49 1518.17,-862.49 1815.83,-862.49 1815.83,-862.49 1819.67,-862.49 1823.5,-866.32 1823.5,-870.16 1823.5,-870.16 1823.5,-877.82 1823.5,-877.82 1823.5,-881.66 1819.67,-885.49 1815.83,-885.49"/>
<text text-anchor="middle" x="1667" y="-870.29" font-family="Arial" font-size="14.00" fill="#cfffac">../../core/usecases/driven/creating_token.driven.js</text>
</g>
<!-- ../../core/providers/token.repository.js&#45;&gt;../../core/usecases/driven/creating_token.driven.js -->
<g id="edge42" class="edge">
<title>../../core/providers/token.repository.js&#45;&gt;../../core/usecases/driven/creating_token.driven.js</title>
<path fill="none" stroke="#757575" d="M1402.21,-844.52C1449.12,-849.76 1504.75,-855.97 1552.8,-861.34"/>
<polygon fill="#757575" stroke="#757575" points="1552.61,-864.84 1562.93,-862.47 1553.38,-857.89 1552.61,-864.84"/>
</g>
<!-- ../../core/usecases/driven/invalidating_token.driven.js -->
<g id="node38" class="node">
<title>../../core/usecases/driven/invalidating_token.driven.js</title>
<path fill="none" stroke="#cfffac" d="M1825.33,-844.49C1825.33,-844.49 1508.67,-844.49 1508.67,-844.49 1504.83,-844.49 1501,-840.66 1501,-836.82 1501,-836.82 1501,-829.16 1501,-829.16 1501,-825.32 1504.83,-821.49 1508.67,-821.49 1508.67,-821.49 1825.33,-821.49 1825.33,-821.49 1829.17,-821.49 1833,-825.32 1833,-829.16 1833,-829.16 1833,-836.82 1833,-836.82 1833,-840.66 1829.17,-844.49 1825.33,-844.49"/>
<text text-anchor="middle" x="1667" y="-829.29" font-family="Arial" font-size="14.00" fill="#cfffac">../../core/usecases/driven/invalidating_token.driven.js</text>
</g>
<!-- ../../core/providers/token.repository.js&#45;&gt;../../core/usecases/driven/invalidating_token.driven.js -->
<g id="edge43" class="edge">
<title>../../core/providers/token.repository.js&#45;&gt;../../core/usecases/driven/invalidating_token.driven.js</title>
<path fill="none" stroke="#757575" d="M1416.64,-832.99C1440.33,-832.99 1465.71,-832.99 1490.88,-832.99"/>
<polygon fill="#757575" stroke="#757575" points="1490.89,-836.49 1500.89,-832.99 1490.89,-829.49 1490.89,-836.49"/>
</g>
<!-- middlewares/jwt.js -->
<g id="node39" class="node">
<title>middlewares/jwt.js</title>
<path fill="none" stroke="#c6c5fe" d="M1722.83,-721.49C1722.83,-721.49 1611.17,-721.49 1611.17,-721.49 1607.33,-721.49 1603.5,-717.66 1603.5,-713.82 1603.5,-713.82 1603.5,-706.16 1603.5,-706.16 1603.5,-702.32 1607.33,-698.49 1611.17,-698.49 1611.17,-698.49 1722.83,-698.49 1722.83,-698.49 1726.67,-698.49 1730.5,-702.32 1730.5,-706.16 1730.5,-706.16 1730.5,-713.82 1730.5,-713.82 1730.5,-717.66 1726.67,-721.49 1722.83,-721.49"/>
<text text-anchor="middle" x="1667" y="-706.29" font-family="Arial" font-size="14.00" fill="#c6c5fe">middlewares/jwt.js</text>
</g>
<!-- ../../core/providers/token.repository.js&#45;&gt;middlewares/jwt.js -->
<g id="edge44" class="edge">
<title>../../core/providers/token.repository.js&#45;&gt;middlewares/jwt.js</title>
<path fill="none" stroke="#757575" d="M1344.19,-821.42C1376.7,-811.67 1420.52,-795.52 1454,-771.99 1473.84,-758.05 1468.54,-742.28 1490,-730.99 1521.34,-714.49 1560.08,-708.58 1593.22,-707.08"/>
<polygon fill="#757575" stroke="#757575" points="1593.43,-710.57 1603.31,-706.75 1593.2,-703.58 1593.43,-710.57"/>
</g>
<!-- ../../core/providers/user.repository.js&#45;&gt;../../core/config/database.js -->
<g id="edge45" class="edge">
<title>../../core/providers/user.repository.js&#45;&gt;../../core/config/database.js</title>
<path fill="none" stroke="#757575" d="M1413.11,-1119.99C1462.71,-1119.99 1520.25,-1119.99 1567.9,-1119.99"/>
<polygon fill="#757575" stroke="#757575" points="1567.91,-1123.49 1577.91,-1119.99 1567.91,-1116.49 1567.91,-1123.49"/>
</g>
<!-- ../../core/usecases/driven/creating_user.driven.js -->
<g id="node40" class="node">
<title>../../core/usecases/driven/creating_user.driven.js</title>
<path fill="none" stroke="#cfffac" d="M1811.83,-1377.49C1811.83,-1377.49 1522.17,-1377.49 1522.17,-1377.49 1518.33,-1377.49 1514.5,-1373.66 1514.5,-1369.82 1514.5,-1369.82 1514.5,-1362.16 1514.5,-1362.16 1514.5,-1358.32 1518.33,-1354.49 1522.17,-1354.49 1522.17,-1354.49 1811.83,-1354.49 1811.83,-1354.49 1815.67,-1354.49 1819.5,-1358.32 1819.5,-1362.16 1819.5,-1362.16 1819.5,-1369.82 1819.5,-1369.82 1819.5,-1373.66 1815.67,-1377.49 1811.83,-1377.49"/>
<text text-anchor="middle" x="1667" y="-1362.29" font-family="Arial" font-size="14.00" fill="#cfffac">../../core/usecases/driven/creating_user.driven.js</text>
</g>
<!-- ../../core/providers/user.repository.js&#45;&gt;../../core/usecases/driven/creating_user.driven.js -->
<g id="edge46" class="edge">
<title>../../core/providers/user.repository.js&#45;&gt;../../core/usecases/driven/creating_user.driven.js</title>
<path fill="none" stroke="#757575" d="M1413.36,-1118.65C1428.48,-1123.02 1442.65,-1130.07 1454,-1140.99 1520.68,-1205.11 1422.63,-1282.59 1490,-1345.99 1494.78,-1350.48 1499.98,-1354.37 1505.5,-1357.71"/>
<polygon fill="#757575" stroke="#757575" points="1503.97,-1360.86 1514.43,-1362.54 1507.3,-1354.7 1503.97,-1360.86"/>
</g>
<!-- ../../core/usecases/driven/finding_user.driven.js -->
<g id="node41" class="node">
<title>../../core/usecases/driven/finding_user.driven.js</title>
<path fill="none" stroke="#cfffac" d="M1807.83,-1295.49C1807.83,-1295.49 1526.17,-1295.49 1526.17,-1295.49 1522.33,-1295.49 1518.5,-1291.66 1518.5,-1287.82 1518.5,-1287.82 1518.5,-1280.16 1518.5,-1280.16 1518.5,-1276.32 1522.33,-1272.49 1526.17,-1272.49 1526.17,-1272.49 1807.83,-1272.49 1807.83,-1272.49 1811.67,-1272.49 1815.5,-1276.32 1815.5,-1280.16 1815.5,-1280.16 1815.5,-1287.82 1815.5,-1287.82 1815.5,-1291.66 1811.67,-1295.49 1807.83,-1295.49"/>
<text text-anchor="middle" x="1667" y="-1280.29" font-family="Arial" font-size="14.00" fill="#cfffac">../../core/usecases/driven/finding_user.driven.js</text>
</g>
<!-- ../../core/providers/user.repository.js&#45;&gt;../../core/usecases/driven/finding_user.driven.js -->
<g id="edge47" class="edge">
<title>../../core/providers/user.repository.js&#45;&gt;../../core/usecases/driven/finding_user.driven.js</title>
<path fill="none" stroke="#757575" d="M1413.1,-1120.03C1428.07,-1124.25 1442.27,-1130.89 1454,-1140.99 1497.18,-1178.13 1446.42,-1227.31 1490,-1263.99 1495.82,-1268.89 1502.17,-1273.03 1508.87,-1276.51"/>
<polygon fill="#757575" stroke="#757575" points="1507.69,-1279.82 1518.23,-1280.86 1510.63,-1273.47 1507.69,-1279.82"/>
</g>
<!-- ../../core/usecases/driven/updating_user.driven.js -->
<g id="node42" class="node">
<title>../../core/usecases/driven/updating_user.driven.js</title>
<path fill="none" stroke="#cfffac" d="M1813.83,-1254.49C1813.83,-1254.49 1520.17,-1254.49 1520.17,-1254.49 1516.33,-1254.49 1512.5,-1250.66 1512.5,-1246.82 1512.5,-1246.82 1512.5,-1239.16 1512.5,-1239.16 1512.5,-1235.32 1516.33,-1231.49 1520.17,-1231.49 1520.17,-1231.49 1813.83,-1231.49 1813.83,-1231.49 1817.67,-1231.49 1821.5,-1235.32 1821.5,-1239.16 1821.5,-1239.16 1821.5,-1246.82 1821.5,-1246.82 1821.5,-1250.66 1817.67,-1254.49 1813.83,-1254.49"/>
<text text-anchor="middle" x="1667" y="-1239.29" font-family="Arial" font-size="14.00" fill="#cfffac">../../core/usecases/driven/updating_user.driven.js</text>
</g>
<!-- ../../core/providers/user.repository.js&#45;&gt;../../core/usecases/driven/updating_user.driven.js -->
<g id="edge48" class="edge">
<title>../../core/providers/user.repository.js&#45;&gt;../../core/usecases/driven/updating_user.driven.js</title>
<path fill="none" stroke="#757575" d="M1413.16,-1121.76C1427.86,-1125.79 1441.96,-1131.92 1454,-1140.99 1485.78,-1164.95 1457.96,-1199.37 1490,-1222.99 1494.22,-1226.1 1498.67,-1228.89 1503.28,-1231.38"/>
<polygon fill="#757575" stroke="#757575" points="1501.83,-1234.57 1512.35,-1235.81 1504.9,-1228.28 1501.83,-1234.57"/>
</g>
<!-- ../../core/services/email.service.js&#45;&gt;../../config/logger.js -->
<g id="edge49" class="edge">
<title>../../core/services/email.service.js&#45;&gt;../../config/logger.js</title>
<path fill="none" stroke="#757575" d="M1774.51,-923.89C1800.01,-920.77 1825.26,-912.54 1844,-894.99 1922.88,-821.14 1939.82,-459.52 1942.89,-366.72"/>
<polygon fill="#757575" stroke="#757575" points="1946.4,-366.66 1943.21,-356.56 1939.4,-366.44 1946.4,-366.66"/>
</g>
<!-- ../../core/usecases/login.usecase.js&#45;&gt;../../core/usecases/driven/finding_mfa.driven.js -->
<g id="edge50" class="edge">
<title>../../core/usecases/login.usecase.js&#45;&gt;../../core/usecases/driven/finding_mfa.driven.js</title>
<path fill="none" stroke="#757575" d="M1411.13,-1324.53C1426.56,-1320.61 1441.4,-1314.42 1454,-1304.99 1485.86,-1281.13 1458.03,-1246.69 1490,-1222.99 1496.12,-1218.45 1502.7,-1214.6 1509.59,-1211.33"/>
<polygon fill="#757575" stroke="#757575" points="1511.36,-1214.39 1519.18,-1207.24 1508.61,-1207.95 1511.36,-1214.39"/>
</g>
<!-- ../../core/usecases/login.usecase.js&#45;&gt;../../core/usecases/driven/finding_user.driven.js -->
<g id="edge51" class="edge">
<title>../../core/usecases/login.usecase.js&#45;&gt;../../core/usecases/driven/finding_user.driven.js</title>
<path fill="none" stroke="#757575" d="M1402.21,-1313.46C1449.12,-1308.22 1504.75,-1302 1552.8,-1296.63"/>
<polygon fill="#757575" stroke="#757575" points="1553.38,-1300.09 1562.93,-1295.5 1552.61,-1293.13 1553.38,-1300.09"/>
</g>
<!-- ../../core/usecases/driver/login_user.driver.js -->
<g id="node48" class="node">
<title>../../core/usecases/driver/login_user.driver.js</title>
<path fill="none" stroke="#cfffac" d="M1798.83,-1336.49C1798.83,-1336.49 1535.17,-1336.49 1535.17,-1336.49 1531.33,-1336.49 1527.5,-1332.66 1527.5,-1328.82 1527.5,-1328.82 1527.5,-1321.16 1527.5,-1321.16 1527.5,-1317.32 1531.33,-1313.49 1535.17,-1313.49 1535.17,-1313.49 1798.83,-1313.49 1798.83,-1313.49 1802.67,-1313.49 1806.5,-1317.32 1806.5,-1321.16 1806.5,-1321.16 1806.5,-1328.82 1806.5,-1328.82 1806.5,-1332.66 1802.67,-1336.49 1798.83,-1336.49"/>
<text text-anchor="middle" x="1667" y="-1321.29" font-family="Arial" font-size="14.00" fill="#cfffac">../../core/usecases/driver/login_user.driver.js</text>
</g>
<!-- ../../core/usecases/login.usecase.js&#45;&gt;../../core/usecases/driver/login_user.driver.js -->
<g id="edge52" class="edge">
<title>../../core/usecases/login.usecase.js&#45;&gt;../../core/usecases/driver/login_user.driver.js</title>
<path fill="none" stroke="#757575" d="M1411.11,-1324.99C1444.49,-1324.99 1481.61,-1324.99 1516.96,-1324.99"/>
<polygon fill="#757575" stroke="#757575" points="1517.37,-1328.49 1527.37,-1324.99 1517.37,-1321.49 1517.37,-1328.49"/>
</g>
<!-- ../../core/usecases/driver/logout_user.driver.js -->
<g id="node49" class="node">
<title>../../core/usecases/driver/logout_user.driver.js</title>
<path fill="none" stroke="#cfffac" d="M1433.83,-1295.49C1433.83,-1295.49 1162.17,-1295.49 1162.17,-1295.49 1158.33,-1295.49 1154.5,-1291.66 1154.5,-1287.82 1154.5,-1287.82 1154.5,-1280.16 1154.5,-1280.16 1154.5,-1276.32 1158.33,-1272.49 1162.17,-1272.49 1162.17,-1272.49 1433.83,-1272.49 1433.83,-1272.49 1437.67,-1272.49 1441.5,-1276.32 1441.5,-1280.16 1441.5,-1280.16 1441.5,-1287.82 1441.5,-1287.82 1441.5,-1291.66 1437.67,-1295.49 1433.83,-1295.49"/>
<text text-anchor="middle" x="1298" y="-1280.29" font-family="Arial" font-size="14.00" fill="#cfffac">../../core/usecases/driver/logout_user.driver.js</text>
</g>
<!-- ../../core/usecases/logout.usecase.js&#45;&gt;../../core/usecases/driver/logout_user.driver.js -->
<g id="edge53" class="edge">
<title>../../core/usecases/logout.usecase.js&#45;&gt;../../core/usecases/driver/logout_user.driver.js</title>
<path fill="none" stroke="#757575" d="M1072.42,-1254.51C1094.97,-1257.63 1119.42,-1260.97 1142,-1263.99 1159.59,-1266.34 1178.3,-1268.79 1196.42,-1271.14"/>
<polygon fill="#757575" stroke="#757575" points="1196.05,-1274.62 1206.42,-1272.44 1196.95,-1267.68 1196.05,-1274.62"/>
</g>
<!-- ../../core/usecases/mfa.usecase.js&#45;&gt;../../core/usecases/driven/creating_mfa.driven.js -->
<g id="edge54" class="edge">
<title>../../core/usecases/mfa.usecase.js&#45;&gt;../../core/usecases/driven/creating_mfa.driven.js</title>
<path fill="none" stroke="#757575" d="M1011.35,-1149.37C1040.05,-1134.47 1093.14,-1109.43 1142,-1099.99 1278.15,-1073.69 1327.68,-1042.8 1454,-1099.99 1476.09,-1109.99 1468.51,-1129.75 1490,-1140.99 1495.02,-1143.62 1500.24,-1145.97 1505.59,-1148.07"/>
<polygon fill="#757575" stroke="#757575" points="1504.76,-1151.49 1515.35,-1151.59 1507.13,-1144.91 1504.76,-1151.49"/>
</g>
<!-- ../../core/usecases/driven/validating_mfa.driven.js -->
<g id="node43" class="node">
<title>../../core/usecases/driven/validating_mfa.driven.js</title>
<path fill="none" stroke="#cfffac" d="M1446.33,-1213.49C1446.33,-1213.49 1149.67,-1213.49 1149.67,-1213.49 1145.83,-1213.49 1142,-1209.66 1142,-1205.82 1142,-1205.82 1142,-1198.16 1142,-1198.16 1142,-1194.32 1145.83,-1190.49 1149.67,-1190.49 1149.67,-1190.49 1446.33,-1190.49 1446.33,-1190.49 1450.17,-1190.49 1454,-1194.32 1454,-1198.16 1454,-1198.16 1454,-1205.82 1454,-1205.82 1454,-1209.66 1450.17,-1213.49 1446.33,-1213.49"/>
<text text-anchor="middle" x="1298" y="-1198.29" font-family="Arial" font-size="14.00" fill="#cfffac">../../core/usecases/driven/validating_mfa.driven.js</text>
</g>
<!-- ../../core/usecases/mfa.usecase.js&#45;&gt;../../core/usecases/driven/validating_mfa.driven.js -->
<g id="edge55" class="edge">
<title>../../core/usecases/mfa.usecase.js&#45;&gt;../../core/usecases/driven/validating_mfa.driven.js</title>
<path fill="none" stroke="#757575" d="M1072.42,-1172.51C1094.97,-1175.63 1119.42,-1178.97 1142,-1181.99 1159.59,-1184.34 1178.3,-1186.79 1196.42,-1189.14"/>
<polygon fill="#757575" stroke="#757575" points="1196.05,-1192.62 1206.42,-1190.44 1196.95,-1185.68 1196.05,-1192.62"/>
</g>
<!-- ../../core/usecases/driver/create_mfa.driver.js -->
<g id="node45" class="node">
<title>../../core/usecases/driver/create_mfa.driver.js</title>
<path fill="none" stroke="#cfffac" d="M1433.33,-1172.49C1433.33,-1172.49 1162.67,-1172.49 1162.67,-1172.49 1158.83,-1172.49 1155,-1168.66 1155,-1164.82 1155,-1164.82 1155,-1157.16 1155,-1157.16 1155,-1153.32 1158.83,-1149.49 1162.67,-1149.49 1162.67,-1149.49 1433.33,-1149.49 1433.33,-1149.49 1437.17,-1149.49 1441,-1153.32 1441,-1157.16 1441,-1157.16 1441,-1164.82 1441,-1164.82 1441,-1168.66 1437.17,-1172.49 1433.33,-1172.49"/>
<text text-anchor="middle" x="1298" y="-1157.29" font-family="Arial" font-size="14.00" fill="#cfffac">../../core/usecases/driver/create_mfa.driver.js</text>
</g>
<!-- ../../core/usecases/mfa.usecase.js&#45;&gt;../../core/usecases/driver/create_mfa.driver.js -->
<g id="edge56" class="edge">
<title>../../core/usecases/mfa.usecase.js&#45;&gt;../../core/usecases/driver/create_mfa.driver.js</title>
<path fill="none" stroke="#757575" d="M1099.53,-1160.99C1114.22,-1160.99 1129.5,-1160.99 1144.76,-1160.99"/>
<polygon fill="#757575" stroke="#757575" points="1144.78,-1164.49 1154.78,-1160.99 1144.78,-1157.49 1144.78,-1164.49"/>
</g>
<!-- ../../core/usecases/driver/validate_mfa.driver.js -->
<g id="node51" class="node">
<title>../../core/usecases/driver/validate_mfa.driver.js</title>
<path fill="none" stroke="#cfffac" d="M1437.83,-1254.49C1437.83,-1254.49 1158.17,-1254.49 1158.17,-1254.49 1154.33,-1254.49 1150.5,-1250.66 1150.5,-1246.82 1150.5,-1246.82 1150.5,-1239.16 1150.5,-1239.16 1150.5,-1235.32 1154.33,-1231.49 1158.17,-1231.49 1158.17,-1231.49 1437.83,-1231.49 1437.83,-1231.49 1441.67,-1231.49 1445.5,-1235.32 1445.5,-1239.16 1445.5,-1239.16 1445.5,-1246.82 1445.5,-1246.82 1445.5,-1250.66 1441.67,-1254.49 1437.83,-1254.49"/>
<text text-anchor="middle" x="1298" y="-1239.29" font-family="Arial" font-size="14.00" fill="#cfffac">../../core/usecases/driver/validate_mfa.driver.js</text>
</g>
<!-- ../../core/usecases/mfa.usecase.js&#45;&gt;../../core/usecases/driver/validate_mfa.driver.js -->
<g id="edge57" class="edge">
<title>../../core/usecases/mfa.usecase.js&#45;&gt;../../core/usecases/driver/validate_mfa.driver.js</title>
<path fill="none" stroke="#757575" d="M1013.05,-1172.6C1042.28,-1186.8 1094.6,-1210.49 1142,-1222.99 1151.54,-1225.5 1161.5,-1227.71 1171.57,-1229.64"/>
<polygon fill="#757575" stroke="#757575" points="1171.2,-1233.13 1181.66,-1231.48 1172.45,-1226.24 1171.2,-1233.13"/>
</g>
<!-- ../../core/usecases/mfa_choose.usecase.js&#45;&gt;../../core/entities/strategy.js -->
<g id="edge58" class="edge">
<title>../../core/usecases/mfa_choose.usecase.js&#45;&gt;../../core/entities/strategy.js</title>
<path fill="none" stroke="#757575" d="M1428.72,-575.39C1437.73,-571.58 1446.29,-566.85 1454,-560.99 1484.08,-538.13 1459.33,-506.04 1490,-483.99 1512.57,-467.76 1541.15,-460.5 1568.67,-457.9"/>
<polygon fill="#757575" stroke="#757575" points="1569.05,-461.38 1578.76,-457.14 1568.52,-454.4 1569.05,-461.38"/>
</g>
<!-- ../../core/usecases/mfa_choose.usecase.js&#45;&gt;../../core/usecases/driven/sending_mfa_code.driven.js -->
<g id="edge61" class="edge">
<title>../../core/usecases/mfa_choose.usecase.js&#45;&gt;../../core/usecases/driven/sending_mfa_code.driven.js</title>
<path fill="none" stroke="#757575" d="M1434.29,-592.06C1441.53,-595.99 1448.2,-600.9 1454,-606.99 1523.49,-679.96 1419.96,-986.55 1490,-1058.99 1490.56,-1059.57 1491.13,-1060.14 1491.7,-1060.7"/>
<polygon fill="#757575" stroke="#757575" points="1489.68,-1063.58 1499.54,-1067.46 1494.26,-1058.28 1489.68,-1063.58"/>
</g>
<!-- ../../core/usecases/mfa_choose.usecase.js&#45;&gt;../../core/usecases/driven/finding_mfa_choose.driven.js -->
<g id="edge60" class="edge">
<title>../../core/usecases/mfa_choose.usecase.js&#45;&gt;../../core/usecases/driven/finding_mfa_choose.driven.js</title>
<path fill="none" stroke="#757575" d="M1434.09,-586.99C1450.17,-586.99 1466.79,-586.99 1483.39,-586.99"/>
<polygon fill="#757575" stroke="#757575" points="1483.72,-590.49 1493.72,-586.99 1483.72,-583.49 1483.72,-590.49"/>
</g>
<!-- ../../core/usecases/mfa_choose.usecase.js&#45;&gt;../../core/usecases/driven/creating_mfa_code.driven.js -->
<g id="edge59" class="edge">
<title>../../core/usecases/mfa_choose.usecase.js&#45;&gt;../../core/usecases/driven/creating_mfa_code.driven.js</title>
<path fill="none" stroke="#757575" d="M1402.21,-575.46C1449.12,-570.22 1504.75,-564 1552.8,-558.63"/>
<polygon fill="#757575" stroke="#757575" points="1553.38,-562.09 1562.93,-557.5 1552.61,-555.13 1553.38,-562.09"/>
</g>
<!-- ../../core/usecases/driver/choose_mfa.driver.js -->
<g id="node44" class="node">
<title>../../core/usecases/driver/choose_mfa.driver.js</title>
<path fill="none" stroke="#cfffac" d="M1805.33,-516.49C1805.33,-516.49 1528.67,-516.49 1528.67,-516.49 1524.83,-516.49 1521,-512.66 1521,-508.82 1521,-508.82 1521,-501.16 1521,-501.16 1521,-497.32 1524.83,-493.49 1528.67,-493.49 1528.67,-493.49 1805.33,-493.49 1805.33,-493.49 1809.17,-493.49 1813,-497.32 1813,-501.16 1813,-501.16 1813,-508.82 1813,-508.82 1813,-512.66 1809.17,-516.49 1805.33,-516.49"/>
<text text-anchor="middle" x="1667" y="-501.29" font-family="Arial" font-size="14.00" fill="#cfffac">../../core/usecases/driver/choose_mfa.driver.js</text>
</g>
<!-- ../../core/usecases/mfa_choose.usecase.js&#45;&gt;../../core/usecases/driver/choose_mfa.driver.js -->
<g id="edge62" class="edge">
<title>../../core/usecases/mfa_choose.usecase.js&#45;&gt;../../core/usecases/driver/choose_mfa.driver.js</title>
<path fill="none" stroke="#757575" d="M1416.23,-575.38C1429.37,-571.75 1442.24,-567.05 1454,-560.99 1474.11,-550.62 1469.62,-534.82 1490,-524.99 1496.67,-521.77 1503.63,-518.99 1510.79,-516.58"/>
<polygon fill="#757575" stroke="#757575" points="1512.13,-519.82 1520.65,-513.52 1510.06,-513.14 1512.13,-519.82"/>
</g>
<!-- ../../core/usecases/mfa_code.usecase.js&#45;&gt;../../config/logger.js -->
<g id="edge63" class="edge">
<title>../../core/usecases/mfa_code.usecase.js&#45;&gt;../../config/logger.js</title>
<path fill="none" stroke="#757575" d="M1347.04,-431.41C1385.53,-422.45 1441,-410.21 1490,-401.99 1646.31,-375.77 1686.85,-379.59 1844,-358.99 1852.33,-357.9 1861.05,-356.72 1869.71,-355.53"/>
<polygon fill="#757575" stroke="#757575" points="1870.4,-358.97 1879.83,-354.13 1869.44,-352.03 1870.4,-358.97"/>
</g>
<!-- ../../core/usecases/mfa_code.usecase.js&#45;&gt;../../core/entities/strategy.js -->
<g id="edge64" class="edge">
<title>../../core/usecases/mfa_code.usecase.js&#45;&gt;../../core/entities/strategy.js</title>
<path fill="none" stroke="#757575" d="M1426.59,-450.29C1473.24,-452.96 1525.23,-455.93 1568.8,-458.43"/>
<polygon fill="#757575" stroke="#757575" points="1568.64,-461.92 1578.83,-459 1569.04,-454.93 1568.64,-461.92"/>
</g>
<!-- ../../core/usecases/driver/create_mfa_code.driver.js -->
<g id="node46" class="node">
<title>../../core/usecases/driver/create_mfa_code.driver.js</title>
<path fill="none" stroke="#cfffac" d="M1820.83,-434.49C1820.83,-434.49 1513.17,-434.49 1513.17,-434.49 1509.33,-434.49 1505.5,-430.66 1505.5,-426.82 1505.5,-426.82 1505.5,-419.16 1505.5,-419.16 1505.5,-415.32 1509.33,-411.49 1513.17,-411.49 1513.17,-411.49 1820.83,-411.49 1820.83,-411.49 1824.67,-411.49 1828.5,-415.32 1828.5,-419.16 1828.5,-419.16 1828.5,-426.82 1828.5,-426.82 1828.5,-430.66 1824.67,-434.49 1820.83,-434.49"/>
<text text-anchor="middle" x="1667" y="-419.29" font-family="Arial" font-size="14.00" fill="#cfffac">../../core/usecases/driver/create_mfa_code.driver.js</text>
</g>
<!-- ../../core/usecases/mfa_code.usecase.js&#45;&gt;../../core/usecases/driver/create_mfa_code.driver.js -->
<g id="edge65" class="edge">
<title>../../core/usecases/mfa_code.usecase.js&#45;&gt;../../core/usecases/driver/create_mfa_code.driver.js</title>
<path fill="none" stroke="#757575" d="M1426.59,-436.04C1448.76,-434.83 1472.14,-433.55 1495.24,-432.29"/>
<polygon fill="#757575" stroke="#757575" points="1495.68,-435.78 1505.48,-431.74 1495.3,-428.79 1495.68,-435.78"/>
</g>
<!-- ../../core/usecases/user.usecase.js&#45;&gt;../../config/logger.js -->
<g id="edge66" class="edge">
<title>../../core/usecases/user.usecase.js&#45;&gt;../../config/logger.js</title>
<path fill="none" stroke="#757575" d="M1409.51,-1409.76C1559.7,-1413.75 1813.19,-1415.99 1844,-1386.99 1921.06,-1314.45 1940.26,-511.18 1943.1,-367.06"/>
<polygon fill="#757575" stroke="#757575" points="1946.6,-366.9 1943.29,-356.83 1939.6,-366.76 1946.6,-366.9"/>
</g>
<!-- ../../core/usecases/user.usecase.js&#45;&gt;../../core/usecases/driven/creating_user.driven.js -->
<g id="edge67" class="edge">
<title>../../core/usecases/user.usecase.js&#45;&gt;../../core/usecases/driven/creating_user.driven.js</title>
<path fill="none" stroke="#757575" d="M1404.66,-1394.47C1450.23,-1389.51 1503.67,-1383.68 1550.3,-1378.6"/>
<polygon fill="#757575" stroke="#757575" points="1550.89,-1382.06 1560.45,-1377.49 1550.13,-1375.1 1550.89,-1382.06"/>
</g>
<!-- ../../core/usecases/driver/create_user.driver.js -->
<g id="node47" class="node">
<title>../../core/usecases/driver/create_user.driver.js</title>
<path fill="none" stroke="#cfffac" d="M1803.33,-1457.49C1803.33,-1457.49 1530.67,-1457.49 1530.67,-1457.49 1526.83,-1457.49 1523,-1453.66 1523,-1449.82 1523,-1449.82 1523,-1442.16 1523,-1442.16 1523,-1438.32 1526.83,-1434.49 1530.67,-1434.49 1530.67,-1434.49 1803.33,-1434.49 1803.33,-1434.49 1807.17,-1434.49 1811,-1438.32 1811,-1442.16 1811,-1442.16 1811,-1449.82 1811,-1449.82 1811,-1453.66 1807.17,-1457.49 1803.33,-1457.49"/>
<text text-anchor="middle" x="1667" y="-1442.29" font-family="Arial" font-size="14.00" fill="#cfffac">../../core/usecases/driver/create_user.driver.js</text>
</g>
<!-- ../../core/usecases/user.usecase.js&#45;&gt;../../core/usecases/driver/create_user.driver.js -->
<g id="edge68" class="edge">
<title>../../core/usecases/user.usecase.js&#45;&gt;../../core/usecases/driver/create_user.driver.js</title>
<path fill="none" stroke="#757575" d="M1404.66,-1417.5C1450.23,-1422.47 1503.67,-1428.3 1550.3,-1433.38"/>
<polygon fill="#757575" stroke="#757575" points="1550.13,-1436.88 1560.45,-1434.48 1550.89,-1429.92 1550.13,-1436.88"/>
</g>
<!-- ../../core/usecases/driver/update_user.driver.js -->
<g id="node50" class="node">
<title>../../core/usecases/driver/update_user.driver.js</title>
<path fill="none" stroke="#cfffac" d="M1805.33,-1498.49C1805.33,-1498.49 1528.67,-1498.49 1528.67,-1498.49 1524.83,-1498.49 1521,-1494.66 1521,-1490.82 1521,-1490.82 1521,-1483.16 1521,-1483.16 1521,-1479.32 1524.83,-1475.49 1528.67,-1475.49 1528.67,-1475.49 1805.33,-1475.49 1805.33,-1475.49 1809.17,-1475.49 1813,-1479.32 1813,-1483.16 1813,-1483.16 1813,-1490.82 1813,-1490.82 1813,-1494.66 1809.17,-1498.49 1805.33,-1498.49"/>
<text text-anchor="middle" x="1667" y="-1483.29" font-family="Arial" font-size="14.00" fill="#cfffac">../../core/usecases/driver/update_user.driver.js</text>
</g>
<!-- ../../core/usecases/user.usecase.js&#45;&gt;../../core/usecases/driver/update_user.driver.js -->
<g id="edge69" class="edge">
<title>../../core/usecases/user.usecase.js&#45;&gt;../../core/usecases/driver/update_user.driver.js</title>
<path fill="none" stroke="#757575" d="M1328.94,-1417.57C1366.13,-1431.49 1431.8,-1454.51 1490,-1466.99 1502.34,-1469.63 1515.25,-1471.94 1528.22,-1473.96"/>
<polygon fill="#757575" stroke="#757575" points="1527.74,-1477.43 1538.15,-1475.45 1528.78,-1470.5 1527.74,-1477.43"/>
</g>
<!-- middlewares/jwt.js&#45;&gt;../../config/enviroment_config.js -->
<g id="edge77" class="edge">
<title>middlewares/jwt.js&#45;&gt;../../config/enviroment_config.js</title>
<path fill="none" stroke="#757575" d="M1730.68,-713.69C1765.82,-713.19 1809.41,-708.12 1844,-689.99 1992.82,-611.97 2101.33,-427.8 2134.72,-365.79"/>
<polygon fill="#757575" stroke="#757575" points="2138,-367.08 2139.59,-356.6 2131.81,-363.8 2138,-367.08"/>
</g>
<!-- middlewares/jwt.js&#45;&gt;../../config/logger.js -->
<g id="edge78" class="edge">
<title>middlewares/jwt.js&#45;&gt;../../config/logger.js</title>
<path fill="none" stroke="#757575" d="M1730.57,-719.5C1767.88,-721.51 1813.73,-717.04 1844,-689.99 1897.38,-642.29 1860.52,-601.88 1880,-532.99 1897.33,-471.7 1922.75,-400.89 1935.53,-366.27"/>
<polygon fill="#757575" stroke="#757575" points="1938.87,-367.33 1939.07,-356.74 1932.31,-364.89 1938.87,-367.33"/>
</g>
<!-- app.js -->
<g id="node52" class="node">
<title>app.js</title>
<path fill="none" stroke="#c6c5fe" d="M196.33,-617.49C196.33,-617.49 157.67,-617.49 157.67,-617.49 153.83,-617.49 150,-613.66 150,-609.82 150,-609.82 150,-602.16 150,-602.16 150,-598.32 153.83,-594.49 157.67,-594.49 157.67,-594.49 196.33,-594.49 196.33,-594.49 200.17,-594.49 204,-598.32 204,-602.16 204,-602.16 204,-609.82 204,-609.82 204,-613.66 200.17,-617.49 196.33,-617.49"/>
<text text-anchor="middle" x="177" y="-602.29" font-family="Arial" font-size="14.00" fill="#c6c5fe">app.js</text>
</g>
<!-- app.js&#45;&gt;../../config/logger.js -->
<g id="edge70" class="edge">
<title>app.js&#45;&gt;../../config/logger.js</title>
<path fill="none" stroke="#757575" d="M185.72,-594.44C220.51,-543.93 368.55,-344.99 542.5,-344.99 542.5,-344.99 542.5,-344.99 1299,-344.99 1505.85,-344.99 1750.03,-344.99 1869.77,-344.99"/>
<polygon fill="#757575" stroke="#757575" points="1869.92,-348.49 1879.92,-344.99 1869.92,-341.49 1869.92,-348.49"/>
</g>
<!-- app.js&#45;&gt;middlewares/jwt.js -->
<g id="edge71" class="edge">
<title>app.js&#45;&gt;middlewares/jwt.js</title>
<path fill="none" stroke="#757575" d="M204.14,-605.09C249.92,-603.69 347.6,-601.49 430,-604.99 872.89,-623.77 1402.64,-680.23 1593.24,-701.64"/>
<polygon fill="#757575" stroke="#757575" points="1593.09,-705.14 1603.42,-702.78 1593.87,-698.19 1593.09,-705.14"/>
</g>
<!-- routes/broker.route.js -->
<g id="node53" class="node">
<title>routes/broker.route.js</title>
<path fill="none" stroke="#c6c5fe" d="M422.33,-278.49C422.33,-278.49 294.67,-278.49 294.67,-278.49 290.83,-278.49 287,-274.66 287,-270.82 287,-270.82 287,-263.16 287,-263.16 287,-259.32 290.83,-255.49 294.67,-255.49 294.67,-255.49 422.33,-255.49 422.33,-255.49 426.17,-255.49 430,-259.32 430,-263.16 430,-263.16 430,-270.82 430,-270.82 430,-274.66 426.17,-278.49 422.33,-278.49"/>
<text text-anchor="middle" x="358.5" y="-263.29" font-family="Arial" font-size="14.00" fill="#c6c5fe">routes/broker.route.js</text>
</g>
<!-- app.js&#45;&gt;routes/broker.route.js -->
<g id="edge72" class="edge">
<title>app.js&#45;&gt;routes/broker.route.js</title>
<path fill="none" stroke="#757575" d="M180.59,-594.35C189.83,-554.65 224.01,-421.98 287,-330.99 299.43,-313.04 317.8,-296.57 332.67,-284.84"/>
<polygon fill="#757575" stroke="#757575" points="335.14,-287.36 340.95,-278.5 330.88,-281.8 335.14,-287.36"/>
</g>
<!-- routes/login.route.js -->
<g id="node54" class="node">
<title>routes/login.route.js</title>
<path fill="none" stroke="#c6c5fe" d="M417.83,-760.49C417.83,-760.49 299.17,-760.49 299.17,-760.49 295.33,-760.49 291.5,-756.66 291.5,-752.82 291.5,-752.82 291.5,-745.16 291.5,-745.16 291.5,-741.32 295.33,-737.49 299.17,-737.49 299.17,-737.49 417.83,-737.49 417.83,-737.49 421.67,-737.49 425.5,-741.32 425.5,-745.16 425.5,-745.16 425.5,-752.82 425.5,-752.82 425.5,-756.66 421.67,-760.49 417.83,-760.49"/>
<text text-anchor="middle" x="358.5" y="-745.29" font-family="Arial" font-size="14.00" fill="#c6c5fe">routes/login.route.js</text>
</g>
<!-- app.js&#45;&gt;routes/login.route.js -->
<g id="edge73" class="edge">
<title>app.js&#45;&gt;routes/login.route.js</title>
<path fill="none" stroke="#757575" d="M185.12,-617.81C200.52,-642.37 239.41,-699.08 287,-728.99 289.47,-730.54 292.07,-731.98 294.75,-733.31"/>
<polygon fill="#757575" stroke="#757575" points="293.55,-736.6 304.11,-737.41 296.36,-730.19 293.55,-736.6"/>
</g>
<!-- routes/logout.route.js -->
<g id="node55" class="node">
<title>routes/logout.route.js</title>
<path fill="none" stroke="#c6c5fe" d="M422.33,-678.49C422.33,-678.49 294.67,-678.49 294.67,-678.49 290.83,-678.49 287,-674.66 287,-670.82 287,-670.82 287,-663.16 287,-663.16 287,-659.32 290.83,-655.49 294.67,-655.49 294.67,-655.49 422.33,-655.49 422.33,-655.49 426.17,-655.49 430,-659.32 430,-663.16 430,-663.16 430,-670.82 430,-670.82 430,-674.66 426.17,-678.49 422.33,-678.49"/>
<text text-anchor="middle" x="358.5" y="-663.29" font-family="Arial" font-size="14.00" fill="#c6c5fe">routes/logout.route.js</text>
</g>
<!-- app.js&#45;&gt;routes/logout.route.js -->
<g id="edge74" class="edge">
<title>app.js&#45;&gt;routes/logout.route.js</title>
<path fill="none" stroke="#757575" d="M204.21,-616.55C226.16,-625.22 258.39,-637.57 287,-646.99 292.65,-648.85 298.59,-650.7 304.52,-652.48"/>
<polygon fill="#757575" stroke="#757575" points="303.87,-655.93 314.45,-655.39 305.84,-649.22 303.87,-655.93"/>
</g>
<!-- routes/mfa.route.js -->
<g id="node56" class="node">
<title>routes/mfa.route.js</title>
<path fill="none" stroke="#c6c5fe" d="M415.33,-637.49C415.33,-637.49 301.67,-637.49 301.67,-637.49 297.83,-637.49 294,-633.66 294,-629.82 294,-629.82 294,-622.16 294,-622.16 294,-618.32 297.83,-614.49 301.67,-614.49 301.67,-614.49 415.33,-614.49 415.33,-614.49 419.17,-614.49 423,-618.32 423,-622.16 423,-622.16 423,-629.82 423,-629.82 423,-633.66 419.17,-637.49 415.33,-637.49"/>
<text text-anchor="middle" x="358.5" y="-622.29" font-family="Arial" font-size="14.00" fill="#c6c5fe">routes/mfa.route.js</text>
</g>
<!-- app.js&#45;&gt;routes/mfa.route.js -->
<g id="edge75" class="edge">
<title>app.js&#45;&gt;routes/mfa.route.js</title>
<path fill="none" stroke="#757575" d="M204.1,-608.9C224.97,-611.22 255.3,-614.6 283.49,-617.74"/>
<polygon fill="#757575" stroke="#757575" points="283.44,-621.26 293.76,-618.89 284.21,-614.3 283.44,-621.26"/>
</g>
<!-- routes/user.route.js -->
<g id="node57" class="node">
<title>routes/user.route.js</title>
<path fill="none" stroke="#c6c5fe" d="M416.33,-719.49C416.33,-719.49 300.67,-719.49 300.67,-719.49 296.83,-719.49 293,-715.66 293,-711.82 293,-711.82 293,-704.16 293,-704.16 293,-700.32 296.83,-696.49 300.67,-696.49 300.67,-696.49 416.33,-696.49 416.33,-696.49 420.17,-696.49 424,-700.32 424,-704.16 424,-704.16 424,-711.82 424,-711.82 424,-715.66 420.17,-719.49 416.33,-719.49"/>
<text text-anchor="middle" x="358.5" y="-704.29" font-family="Arial" font-size="14.00" fill="#c6c5fe">routes/user.route.js</text>
</g>
<!-- app.js&#45;&gt;routes/user.route.js -->
<g id="edge76" class="edge">
<title>app.js&#45;&gt;routes/user.route.js</title>
<path fill="none" stroke="#757575" d="M190.07,-617.49C209.16,-635.1 248.18,-668.72 287,-687.99 290.55,-689.75 294.28,-691.38 298.1,-692.89"/>
<polygon fill="#757575" stroke="#757575" points="297.11,-696.25 307.7,-696.37 299.5,-689.67 297.11,-696.25"/>
</g>
<!-- routes/broker.route.js&#45;&gt;../../config/kafka.js -->
<g id="edge82" class="edge">
<title>routes/broker.route.js&#45;&gt;../../config/kafka.js</title>
<path fill="none" stroke="#757575" d="M416.4,-255.48C435.07,-251.71 456,-247.48 475.36,-243.56"/>
<polygon fill="#757575" stroke="#757575" points="476.21,-246.96 485.32,-241.55 474.83,-240.1 476.21,-246.96"/>
</g>
<!-- routes/login.route.js&#45;&gt;../../core/layers/index.js -->
<g id="edge83" class="edge">
<title>routes/login.route.js&#45;&gt;../../core/layers/index.js</title>
<path fill="none" stroke="#757575" d="M425.57,-747.91C435.4,-747.74 445.65,-747.58 455.82,-747.41"/>
<polygon fill="#757575" stroke="#757575" points="456.01,-750.91 465.95,-747.24 455.9,-743.91 456.01,-750.91"/>
</g>
<!-- routes/logout.route.js&#45;&gt;../../core/layers/index.js -->
<g id="edge84" class="edge">
<title>routes/logout.route.js&#45;&gt;../../core/layers/index.js</title>
<path fill="none" stroke="#757575" d="M408.42,-678.51C415.88,-681.13 423.31,-684.26 430,-687.99 448.7,-698.4 447.5,-709.22 466,-719.99 473.23,-724.2 481.25,-727.86 489.29,-730.99"/>
<polygon fill="#757575" stroke="#757575" points="488.1,-734.29 498.7,-734.44 490.51,-727.71 488.1,-734.29"/>
</g>
<!-- routes/logout.route.js&#45;&gt;middlewares/jwt.js -->
<g id="edge85" class="edge">
<title>routes/logout.route.js&#45;&gt;middlewares/jwt.js</title>
<path fill="none" stroke="#757575" d="M430.07,-678.43C507.3,-689.93 634.87,-705.99 745.5,-705.99 745.5,-705.99 745.5,-705.99 990,-705.99 1209.46,-705.99 1468.99,-708.12 1592.96,-709.27"/>
<polygon fill="#757575" stroke="#757575" points="1593.06,-712.77 1603.09,-709.37 1593.13,-705.77 1593.06,-712.77"/>
</g>
<!-- routes/mfa.route.js&#45;&gt;../../core/entities/strategy.js -->
<g id="edge86" class="edge">
<title>routes/mfa.route.js&#45;&gt;../../core/entities/strategy.js</title>
<path fill="none" stroke="#757575" d="M423.21,-617.72C595.21,-595.45 1083.43,-532.62 1490,-483.99 1515.47,-480.94 1543.04,-477.76 1568.62,-474.85"/>
<polygon fill="#757575" stroke="#757575" points="1569.15,-478.31 1578.69,-473.7 1568.36,-471.35 1569.15,-478.31"/>
</g>
<!-- routes/mfa.route.js&#45;&gt;../../core/layers/index.js -->
<g id="edge87" class="edge">
<title>routes/mfa.route.js&#45;&gt;../../core/layers/index.js</title>
<path fill="none" stroke="#757575" d="M408.41,-637.54C415.86,-640.15 423.3,-643.28 430,-646.99 468.52,-668.31 505.27,-704.7 525.76,-726.92"/>
<polygon fill="#757575" stroke="#757575" points="523.24,-729.35 532.55,-734.41 528.43,-724.65 523.24,-729.35"/>
</g>
<!-- routes/user.route.js&#45;&gt;../../core/layers/index.js -->
<g id="edge88" class="edge">
<title>routes/user.route.js&#45;&gt;../../core/layers/index.js</title>
<path fill="none" stroke="#757575" d="M414.9,-719.49C434.52,-723.57 456.77,-728.19 477.14,-732.42"/>
<polygon fill="#757575" stroke="#757575" points="476.47,-735.85 486.97,-734.46 477.89,-729 476.47,-735.85"/>
</g>
<!-- middlewares/metric.js -->
<g id="node58" class="node">
<title>middlewares/metric.js</title>
<path fill="none" stroke="#c6c5fe" d="M243.33,-86.49C243.33,-86.49 110.67,-86.49 110.67,-86.49 106.83,-86.49 103,-82.66 103,-78.82 103,-78.82 103,-71.16 103,-71.16 103,-67.32 106.83,-63.49 110.67,-63.49 110.67,-63.49 243.33,-63.49 243.33,-63.49 247.17,-63.49 251,-67.32 251,-71.16 251,-71.16 251,-78.82 251,-78.82 251,-82.66 247.17,-86.49 243.33,-86.49"/>
<text text-anchor="middle" x="177" y="-71.29" font-family="Arial" font-size="14.00" fill="#c6c5fe">middlewares/metric.js</text>
</g>
<!-- middlewares/metric.js&#45;&gt;../../config/metric.js -->
<g id="edge79" class="edge">
<title>middlewares/metric.js&#45;&gt;../../config/metric.js</title>
<path fill="none" stroke="#757575" d="M251.03,-74.99C359.49,-74.99 562.06,-74.99 671.23,-74.99"/>
<polygon fill="#757575" stroke="#757575" points="671.5,-78.49 681.5,-74.99 671.5,-71.49 671.5,-78.49"/>
</g>
<!-- middlewares/tracer.js -->
<g id="node59" class="node">
<title>middlewares/tracer.js</title>
<path fill="none" stroke="#c6c5fe" d="M1362.33,-164.49C1362.33,-164.49 1233.67,-164.49 1233.67,-164.49 1229.83,-164.49 1226,-160.66 1226,-156.82 1226,-156.82 1226,-149.16 1226,-149.16 1226,-145.32 1229.83,-141.49 1233.67,-141.49 1233.67,-141.49 1362.33,-141.49 1362.33,-141.49 1366.17,-141.49 1370,-145.32 1370,-149.16 1370,-149.16 1370,-156.82 1370,-156.82 1370,-160.66 1366.17,-164.49 1362.33,-164.49"/>
<text text-anchor="middle" x="1298" y="-149.29" font-family="Arial" font-size="14.00" fill="#c6c5fe">middlewares/tracer.js</text>
</g>
<!-- middlewares/tracer.js&#45;&gt;../../config/logger.js -->
<g id="edge80" class="edge">
<title>middlewares/tracer.js&#45;&gt;../../config/logger.js</title>
<path fill="none" stroke="#757575" d="M1370.13,-161.42C1498.11,-177.38 1761.53,-214.11 1844,-254.99 1878.48,-272.08 1909.9,-304.6 1927.85,-325.52"/>
<polygon fill="#757575" stroke="#757575" points="1925.37,-328.01 1934.47,-333.43 1930.74,-323.51 1925.37,-328.01"/>
</g>
<!-- middlewares/tracer.js&#45;&gt;../../config/trace.js -->
<g id="edge81" class="edge">
<title>middlewares/tracer.js&#45;&gt;../../config/trace.js</title>
<path fill="none" stroke="#757575" d="M1370.2,-152.99C1435.29,-152.99 1531.03,-152.99 1595.81,-152.99"/>
<polygon fill="#757575" stroke="#757575" points="1595.93,-156.49 1605.93,-152.99 1595.93,-149.49 1595.93,-156.49"/>
</g>
<!-- server.js -->
<g id="node60" class="node">
<title>server.js</title>
<path fill="none" stroke="#c6c5fe" d="M59.33,-164.49C59.33,-164.49 7.67,-164.49 7.67,-164.49 3.83,-164.49 0,-160.66 0,-156.82 0,-156.82 0,-149.16 0,-149.16 0,-145.32 3.83,-141.49 7.67,-141.49 7.67,-141.49 59.33,-141.49 59.33,-141.49 63.17,-141.49 67,-145.32 67,-149.16 67,-149.16 67,-156.82 67,-156.82 67,-160.66 63.17,-164.49 59.33,-164.49"/>
<text text-anchor="middle" x="33.5" y="-149.29" font-family="Arial" font-size="14.00" fill="#c6c5fe">server.js</text>
</g>
<!-- server.js&#45;&gt;../../config/enviroment_config.js -->
<g id="edge89" class="edge">
<title>server.js&#45;&gt;../../config/enviroment_config.js</title>
<path fill="none" stroke="#757575" d="M67.36,-146.54C125.59,-135.7 250.78,-114.99 357.5,-114.99 357.5,-114.99 357.5,-114.99 544.5,-114.99 1122.1,-114.99 1266.67,-114.22 1844,-131.99 1917.38,-134.25 1945.14,-103.77 2009,-139.99 2082.19,-181.5 2123.51,-280.31 2138.71,-323.81"/>
<polygon fill="#757575" stroke="#757575" points="2135.43,-325.03 2141.95,-333.38 2142.06,-322.79 2135.43,-325.03"/>
</g>
<!-- server.js&#45;&gt;../../config/logger.js -->
<g id="edge90" class="edge">
<title>server.js&#45;&gt;../../config/logger.js</title>
<path fill="none" stroke="#757575" d="M47.58,-164.56C89.44,-200.38 225.18,-306.99 357.5,-306.99 357.5,-306.99 357.5,-306.99 1299,-306.99 1506.21,-306.99 1750.23,-326.8 1869.86,-337.82"/>
<polygon fill="#757575" stroke="#757575" points="1869.72,-341.32 1880,-338.76 1870.36,-334.35 1869.72,-341.32"/>
</g>
<!-- server.js&#45;&gt;../../config/metric.js -->
<g id="edge91" class="edge">
<title>server.js&#45;&gt;../../config/metric.js</title>
<path fill="none" stroke="#757575" d="M38.41,-141.35C46.48,-119.47 67.27,-72.71 103,-53.99 305.74,52.27 596.02,-25.21 703.44,-60.22"/>
<polygon fill="#757575" stroke="#757575" points="702.37,-63.55 712.96,-63.37 704.56,-56.91 702.37,-63.55"/>
</g>
<!-- server.js&#45;&gt;../../core/config/cache.js -->
<g id="edge92" class="edge">
<title>server.js&#45;&gt;../../core/config/cache.js</title>
<path fill="none" stroke="#757575" d="M35.02,-164.5C38.06,-228.79 55.25,-543.61 103,-625.99 170.72,-742.83 222.45,-791.99 357.5,-791.99 357.5,-791.99 357.5,-791.99 990,-791.99 1200.82,-791.99 1448.63,-791.99 1577.71,-791.99"/>
<polygon fill="#757575" stroke="#757575" points="1577.93,-795.49 1587.93,-791.99 1577.93,-788.49 1577.93,-795.49"/>
</g>
<!-- server.js&#45;&gt;app.js -->
<g id="edge93" class="edge">
<title>server.js&#45;&gt;app.js</title>
<path fill="none" stroke="#757575" d="M38.14,-164.64C57.06,-225.22 144.28,-504.43 169.28,-584.48"/>
<polygon fill="#757575" stroke="#757575" points="166.06,-585.91 172.38,-594.41 172.74,-583.82 166.06,-585.91"/>
</g>
<!-- server.js&#45;&gt;middlewares/metric.js -->
<g id="edge94" class="edge">
<title>server.js&#45;&gt;middlewares/metric.js</title>
<path fill="none" stroke="#757575" d="M47.31,-141.33C60.48,-129.82 81.99,-112.35 103,-100.99 110.48,-96.94 118.73,-93.31 126.9,-90.13"/>
<polygon fill="#757575" stroke="#757575" points="128.24,-93.36 136.4,-86.61 125.81,-86.8 128.24,-93.36"/>
</g>
<!-- server.js&#45;&gt;middlewares/tracer.js -->
<g id="edge95" class="edge">
<title>server.js&#45;&gt;middlewares/tracer.js</title>
<path fill="none" stroke="#757575" d="M67.05,-152.99C125.31,-152.99 251.24,-152.99 357.5,-152.99 357.5,-152.99 357.5,-152.99 747.5,-152.99 913.85,-152.99 1108.53,-152.99 1215.77,-152.99"/>
<polygon fill="#757575" stroke="#757575" points="1215.87,-156.49 1225.87,-152.99 1215.87,-149.49 1215.87,-156.49"/>
</g>
</g>
</svg>
